<?xml version="1.0" encoding="UTF-8"?><svg version="1.1" xmlns="http://www.w3.org/2000/svg" xmlns:xlink="http://www.w3.org/1999/xlink" viewBox="0 0 1600 1200" width="1600" height="1200" x="0px" y="0px">
              
              <!-- ITEM 0 -->
<g transform="translate(703.0 133.0) scale(5.3358467046206 5.321670696439577) rotate(0.0 65.7815 84.372)">
<g transform="translate(-0.0 -0.0)">
<title> tablet</title><g id="Layer_2-i0" data-name="Layer 2"><g id="Layer_1-2-i0" data-name="Layer 1"><path d="M11.849,0H119.714a11.858,11.858,0,0,1,11.849,11.849V156.9a11.858,11.858,0,0,1-11.849,11.849H11.849A11.858,11.858,0,0,1,0,156.9V11.849A11.991,11.991,0,0,1,11.849,0Z" fill="#f9d5ff"/><rect x="7.712" y="13.483" width="116.139" height="133.401" fill="#fff"/><circle cx="65.781" cy="157.406" r="5.312" fill="#fff"/></g></g>
</g>
</g>

<!-- ITEM 1 -->
<g transform="translate(839.0 416.0) scale(3.195795006570302 3.221343018982142) rotate(90.0 95.125 46.254)">
<g transform="translate(-892.0 -1441.502)">

<g>
	<path fill="#ABABC2" d="M994.5,1495c-0.068,0-0.138-0.014-0.204-0.044l-33.5-15c-0.252-0.112-0.365-0.408-0.252-0.66   c0.112-0.252,0.409-0.366,0.66-0.252l33.5,15c0.252,0.112,0.365,0.408,0.252,0.66C994.873,1494.89,994.69,1495,994.5,1495z"/>
</g>
<g>
	<path fill="#ABABC2" d="M959,1524.5c-0.004,0-0.008,0-0.012,0c-0.276-0.007-0.494-0.235-0.488-0.512l1-43   c0.008-0.276,0.242-0.453,0.512-0.488c0.276,0.007,0.494,0.235,0.488,0.512l-1,43C959.493,1524.284,959.271,1524.5,959,1524.5z"/>
</g>
<g>
	<path fill="#ABABC2" d="M999.501,1488.5c-0.014,0-0.026,0-0.04-0.002c-0.275-0.021-0.48-0.262-0.459-0.537l3-38.5   c0.021-0.275,0.268-0.499,0.537-0.459c0.275,0.021,0.48,0.262,0.459,0.537l-3,38.5C999.979,1488.301,999.759,1488.5,999.501,1488.5   z"/>
</g>
<g>
	<path fill="#ABABC2" d="M959,1522.5c-0.158,0-0.314-0.075-0.411-0.216c-0.157-0.228-0.101-0.539,0.127-0.695l35.5-24.5   c0.226-0.157,0.538-0.101,0.695,0.127s0.101,0.539-0.127,0.695l-35.5,24.5C959.197,1522.472,959.099,1522.5,959,1522.5z"/>
</g>
<g>
	<path fill="#ABABC2" d="M958,1482.5h-54.5c-0.276,0-0.5-0.224-0.5-0.5s0.224-0.5,0.5-0.5H958c0.276,0,0.5,0.224,0.5,0.5   S958.276,1482.5,958,1482.5z"/>
</g>
<g>
	<path fill="#ABABC2" d="M1073,1525c-0.063,0-0.128-0.012-0.189-0.037l-75.5-31c-0.256-0.105-0.378-0.397-0.273-0.652   c0.105-0.256,0.4-0.376,0.652-0.273l75.5,31c0.256,0.105,0.378,0.397,0.273,0.652C1073.383,1524.883,1073.196,1525,1073,1525z"/>
</g>
<g>
	<circle fill="#C4ECFE" cx="904" cy="1482" r="6.5"/>
</g>
<g>
	<path fill="#ABABC2" d="M904.016,1494c-0.006,0-0.011,0-0.017,0c-0.672,0-1.346-0.057-2.003-0.167   c-0.272-0.046-0.456-0.304-0.41-0.576s0.31-0.451,0.576-0.41c0.603,0.102,1.221,0.153,1.838,0.153c0.005,0,0.01,0,0.016,0   c0.654,0,1.311-0.059,1.954-0.176c0.268-0.045,0.531,0.13,0.581,0.403c0.049,0.271-0.131,0.531-0.403,0.581   C905.446,1493.936,904.729,1494,904.016,1494z M898.33,1492.508c-0.084,0-0.169-0.021-0.247-0.065   c-1.213-0.688-2.29-1.576-3.202-2.641c-0.18-0.21-0.155-0.525,0.055-0.705c0.208-0.18,0.524-0.154,0.705,0.055   c0.836,0.976,1.824,1.79,2.937,2.422c0.24,0.136,0.324,0.441,0.188,0.682C898.673,1492.417,898.504,1492.508,898.33,1492.508z    M909.792,1492.438c-0.172,0-0.339-0.089-0.432-0.248c-0.14-0.238-0.059-0.544,0.18-0.684c1.107-0.647,2.085-1.475,2.906-2.458   c0.178-0.211,0.493-0.239,0.704-0.063c0.212,0.177,0.24,0.492,0.063,0.704c-0.896,1.073-1.962,1.975-3.17,2.681   C909.965,1492.417,909.878,1492.438,909.792,1492.438z M893.234,1486.553c-0.202,0-0.393-0.123-0.468-0.324   c-0.491-1.302-0.749-2.675-0.767-4.08c-0.004-0.276,0.218-0.503,0.493-0.507c0.003,0,0.005,0,0.007,0c0.273,0,0.496,0.22,0.5,0.493   c0.017,1.289,0.253,2.548,0.702,3.742c0.098,0.258-0.033,0.546-0.292,0.644C893.353,1486.543,893.293,1486.553,893.234,1486.553z    M914.814,1486.42c-0.057,0-0.114-0.01-0.171-0.03c-0.259-0.094-0.394-0.381-0.299-0.641c0.435-1.199,0.655-2.461,0.655-3.749   l-0.003-0.274c-0.006-0.276,0.214-0.505,0.489-0.511c0.004,0,0.008,0,0.011,0c0.271,0,0.494,0.217,0.5,0.489L916,1482   c0,1.405-0.241,2.781-0.716,4.091C915.211,1486.294,915.019,1486.42,914.814,1486.42z M893.138,1478.714   c-0.055,0-0.11-0.009-0.165-0.028c-0.261-0.091-0.398-0.376-0.307-0.637c0.459-1.318,1.142-2.538,2.026-3.624   c0.174-0.215,0.488-0.244,0.704-0.071c0.214,0.175,0.246,0.489,0.071,0.704c-0.812,0.995-1.437,2.112-1.858,3.321   C893.538,1478.585,893.345,1478.714,893.138,1478.714z M914.715,1478.314c-0.2,0-0.389-0.12-0.466-0.318   c-0.466-1.191-1.131-2.284-1.979-3.249c-0.182-0.208-0.161-0.523,0.046-0.706c0.207-0.182,0.522-0.161,0.706,0.046   c0.924,1.053,1.65,2.245,2.158,3.546c0.101,0.257-0.026,0.547-0.284,0.647C914.837,1478.304,914.775,1478.314,914.715,1478.314z    M898.087,1472.635c-0.169,0-0.335-0.086-0.429-0.242c-0.143-0.237-0.065-0.544,0.171-0.687c1.2-0.721,2.505-1.221,3.878-1.487   c0.259-0.053,0.532,0.124,0.586,0.396c0.052,0.271-0.125,0.533-0.396,0.586c-1.257,0.243-2.452,0.702-3.552,1.362   C898.264,1472.611,898.175,1472.635,898.087,1472.635z M909.544,1472.424c-0.082,0-0.165-0.02-0.242-0.063   c-1.12-0.619-2.331-1.033-3.6-1.229c-0.272-0.042-0.459-0.298-0.417-0.571c0.042-0.271,0.295-0.456,0.571-0.417   c1.384,0.215,2.706,0.667,3.93,1.343c0.241,0.134,0.329,0.438,0.195,0.68C909.891,1472.331,909.72,1472.424,909.544,1472.424z"/>
</g>
<g>
	<circle fill="#C4ECFE" cx="960" cy="1522" r="6.5"/>
</g>
<g>
	<path fill="#ABABC2" d="M960.016,1534c-0.658,0.042-1.356-0.056-2.02-0.167c-0.272-0.046-0.456-0.304-0.41-0.576   s0.313-0.453,0.576-0.41c0.603,0.102,1.221,0.153,1.838,0.153c0.005,0,0.01,0,0.016,0c0.654,0,1.311-0.059,1.954-0.176   c0.267-0.046,0.531,0.13,0.581,0.403c0.049,0.271-0.131,0.531-0.403,0.581C961.446,1533.936,960.729,1534,960.016,1534z    M954.33,1532.508c-0.084,0-0.169-0.021-0.247-0.065c-1.213-0.688-2.29-1.576-3.202-2.641c-0.18-0.21-0.155-0.525,0.055-0.705   c0.209-0.18,0.524-0.154,0.705,0.055c0.836,0.976,1.824,1.79,2.937,2.422c0.24,0.136,0.324,0.441,0.188,0.682   C954.673,1532.417,954.504,1532.508,954.33,1532.508z M965.792,1532.438c-0.172,0-0.339-0.089-0.432-0.248   c-0.14-0.238-0.059-0.544,0.18-0.684c1.107-0.647,2.085-1.475,2.906-2.458c0.178-0.211,0.493-0.239,0.704-0.063   c0.212,0.177,0.24,0.492,0.063,0.704c-0.896,1.073-1.962,1.975-3.17,2.681C965.965,1532.417,965.878,1532.438,965.792,1532.438z    M949.234,1526.553c-0.202,0-0.393-0.123-0.468-0.324c-0.491-1.302-0.749-2.675-0.767-4.08c-0.004-0.276,0.218-0.503,0.493-0.507   c0.003,0,0.005,0,0.007,0c0.273,0,0.496,0.22,0.5,0.493c0.017,1.289,0.253,2.548,0.702,3.742c0.098,0.258-0.033,0.546-0.292,0.644   C949.353,1526.543,949.293,1526.553,949.234,1526.553z M970.814,1526.42c-0.057,0-0.114-0.01-0.171-0.03   c-0.259-0.094-0.394-0.381-0.299-0.641c0.435-1.199,0.655-2.461,0.655-3.749l-0.003-0.274c-0.006-0.276,0.214-0.505,0.489-0.511   c0.004,0,0.008,0,0.011,0c0.271,0,0.494,0.217,0.5,0.489L972,1522c0,1.405-0.241,2.781-0.716,4.091   C971.211,1526.294,971.019,1526.42,970.814,1526.42z M949.138,1518.714c-0.055,0-0.11-0.009-0.165-0.028   c-0.261-0.091-0.398-0.376-0.307-0.637c0.459-1.318,1.142-2.538,2.026-3.624c0.175-0.215,0.488-0.244,0.704-0.071   c0.214,0.175,0.246,0.489,0.071,0.704c-0.812,0.995-1.437,2.112-1.858,3.321C949.538,1518.585,949.345,1518.714,949.138,1518.714z    M970.715,1518.314c-0.2,0-0.389-0.12-0.466-0.318c-0.466-1.191-1.131-2.284-1.979-3.249c-0.182-0.208-0.161-0.523,0.046-0.706   c0.206-0.182,0.522-0.161,0.706,0.046c0.924,1.053,1.65,2.245,2.158,3.546c0.101,0.257-0.026,0.547-0.284,0.647   C970.837,1518.304,970.775,1518.314,970.715,1518.314z M954.087,1512.635c-0.169,0-0.335-0.086-0.429-0.242   c-0.143-0.237-0.065-0.544,0.171-0.687c1.2-0.721,2.505-1.221,3.878-1.487c0.257-0.046,0.533,0.124,0.586,0.396   c0.052,0.271-0.125,0.533-0.396,0.586c-1.257,0.243-2.452,0.702-3.552,1.362C954.264,1512.611,954.175,1512.635,954.087,1512.635z    M965.544,1512.424c-0.082,0-0.165-0.02-0.242-0.063c-1.12-0.619-2.331-1.033-3.6-1.229c-0.272-0.042-0.459-0.298-0.417-0.571   c0.043-0.271,0.296-0.453,0.571-0.417c1.384,0.215,2.706,0.667,3.93,1.343c0.241,0.134,0.329,0.438,0.195,0.68   C965.891,1512.331,965.72,1512.424,965.544,1512.424z"/>
</g>
<g>
	<circle fill="#C4ECFE" cx="1002.75" cy="1451.25" r="5.228"/>
</g>
<g>
	<path fill="#ABABC2" d="M1001.292,1460.886c-0.026,0-0.053-0.002-0.079-0.006c-1.403-0.223-2.713-0.737-3.895-1.531   c-0.229-0.154-0.29-0.465-0.136-0.694c0.155-0.23,0.466-0.288,0.694-0.136c1.06,0.712,2.234,1.174,3.492,1.373   c0.272,0.044,0.459,0.3,0.416,0.572C1001.746,1460.71,1001.533,1460.886,1001.292,1460.886z M1005.253,1460.657   c-0.219,0-0.42-0.145-0.481-0.365c-0.074-0.266,0.081-0.542,0.347-0.616c1.224-0.343,2.337-0.938,3.31-1.769   c0.211-0.18,0.525-0.154,0.705,0.055c0.18,0.21,0.155,0.526-0.055,0.705c-1.084,0.926-2.326,1.589-3.69,1.972   C1005.343,1460.651,1005.297,1460.657,1005.253,1460.657z M994.854,1456.569c-0.168,0-0.332-0.085-0.427-0.239   c-0.742-1.214-1.2-2.545-1.361-3.955c-0.031-0.274,0.166-0.522,0.44-0.554c0.27-0.035,0.522,0.166,0.554,0.44   c0.144,1.265,0.555,2.458,1.221,3.547c0.144,0.235,0.069,0.543-0.166,0.688C995.033,1456.546,994.943,1456.569,994.854,1456.569z    M1011.151,1455.626c-0.07,0-0.142-0.015-0.21-0.046c-0.251-0.116-0.359-0.413-0.244-0.664c0.533-1.151,0.803-2.385,0.803-3.666   c0-0.678-0.078-1.353-0.231-2.008c-0.063-0.269,0.104-0.538,0.372-0.601c0.272-0.07,0.538,0.104,0.601,0.372   c0.172,0.729,0.259,1.482,0.259,2.236c0,1.427-0.301,2.802-0.895,4.086C1011.521,1455.519,1011.34,1455.626,1011.151,1455.626z    M993.957,1448.869c-0.052,0-0.104-0.008-0.155-0.024c-0.263-0.086-0.406-0.369-0.32-0.631c0.436-1.329,1.171-2.574,2.127-3.602   c0.189-0.201,0.505-0.213,0.707-0.025c0.202,0.188,0.213,0.505,0.025,0.707c-0.858,0.922-1.519,2.039-1.908,3.23   C994.363,1448.735,994.167,1448.869,993.957,1448.869z M1010.037,1446.052c-0.148,0-0.295-0.065-0.394-0.191   c-0.775-0.991-1.775-1.818-2.893-2.395c-0.245-0.126-0.342-0.428-0.215-0.674s0.43-0.342,0.674-0.215   c1.243,0.641,2.357,1.563,3.221,2.666c0.17,0.218,0.132,0.532-0.085,0.702C1010.254,1446.017,1010.146,1446.052,1010.037,1446.052z    M999.235,1443.191c-0.196,0-0.383-0.117-0.463-0.31c-0.104-0.256,0.018-0.548,0.272-0.653c1.304-0.535,2.709-0.768,4.117-0.721   c0.276,0.011,0.491,0.243,0.481,0.519c-0.012,0.275-0.256,0.488-0.519,0.481c-1.262-0.042-2.527,0.164-3.699,0.646   C999.363,1443.18,999.299,1443.191,999.235,1443.191z"/>
</g>
<g>
	<circle fill="#C4ECFE" cx="1072.5" cy="1524" r="5.228"/>
</g>
<g>
	<path fill="#ABABC2" d="M1071.042,1533.636c-0.026,0-0.053-0.002-0.079-0.006c-1.403-0.223-2.713-0.737-3.895-1.531   c-0.229-0.154-0.29-0.465-0.136-0.694c0.155-0.229,0.467-0.288,0.694-0.136c1.06,0.712,2.234,1.174,3.492,1.373   c0.272,0.044,0.459,0.3,0.416,0.572C1071.496,1533.46,1071.283,1533.636,1071.042,1533.636z M1075.003,1533.407   c-0.219,0-0.42-0.145-0.481-0.365c-0.074-0.266,0.081-0.542,0.347-0.616c1.224-0.343,2.337-0.938,3.31-1.769   c0.211-0.179,0.525-0.155,0.705,0.055s0.155,0.526-0.055,0.705c-1.084,0.926-2.326,1.589-3.69,1.972   C1075.093,1533.401,1075.047,1533.407,1075.003,1533.407z M1064.604,1529.319c-0.168,0-0.332-0.085-0.427-0.239   c-0.742-1.214-1.2-2.545-1.361-3.955c-0.031-0.274,0.166-0.522,0.44-0.554c0.261-0.025,0.521,0.165,0.554,0.44   c0.144,1.265,0.555,2.458,1.221,3.547c0.144,0.235,0.069,0.543-0.166,0.688C1064.783,1529.296,1064.693,1529.319,1064.604,1529.319   z M1080.901,1528.376c-0.07,0-0.142-0.015-0.21-0.046c-0.251-0.116-0.359-0.413-0.244-0.664c0.533-1.151,0.803-2.385,0.803-3.666   c0-0.678-0.078-1.353-0.231-2.008c-0.063-0.269,0.104-0.538,0.372-0.601c0.271-0.069,0.538,0.104,0.601,0.372   c0.172,0.729,0.259,1.482,0.259,2.236c0,1.427-0.301,2.802-0.895,4.086C1081.271,1528.269,1081.09,1528.376,1080.901,1528.376z    M1063.707,1521.619c-0.052,0-0.104-0.008-0.155-0.024c-0.263-0.086-0.406-0.369-0.32-0.631c0.436-1.329,1.171-2.574,2.127-3.602   c0.188-0.201,0.505-0.213,0.707-0.025c0.202,0.188,0.213,0.505,0.025,0.707c-0.858,0.922-1.519,2.039-1.908,3.23   C1064.113,1521.485,1063.917,1521.619,1063.707,1521.619z M1079.787,1518.802c-0.148,0-0.295-0.065-0.394-0.191   c-0.775-0.991-1.775-1.818-2.893-2.395c-0.245-0.126-0.342-0.428-0.215-0.674c0.127-0.245,0.43-0.343,0.674-0.215   c1.243,0.641,2.357,1.563,3.221,2.666c0.17,0.218,0.132,0.532-0.085,0.702C1080.004,1518.767,1079.896,1518.802,1079.787,1518.802z    M1068.985,1515.941c-0.196,0-0.383-0.117-0.463-0.31c-0.104-0.256,0.018-0.548,0.272-0.653c1.304-0.535,2.708-0.769,4.117-0.721   c0.276,0.011,0.491,0.243,0.481,0.519c-0.011,0.275-0.234,0.473-0.519,0.481c-1.261-0.045-2.527,0.165-3.699,0.646   C1069.113,1515.93,1069.049,1515.941,1068.985,1515.941z"/>
</g>
<g>
	<circle fill="#ABABC2" cx="961" cy="1480.5" r="9"/>
</g>
<g>
	<path fill="#ABABC2" d="M961.016,1492.5c-0.642-0.025-1.356-0.056-2.02-0.167c-0.272-0.046-0.456-0.304-0.41-0.576   s0.313-0.455,0.576-0.41c0.603,0.102,1.221,0.153,1.838,0.153c0.005,0,0.01,0,0.016,0c0.654,0,1.311-0.059,1.954-0.176   c0.265-0.041,0.531,0.13,0.581,0.403c0.049,0.271-0.131,0.531-0.403,0.581C962.446,1492.436,961.729,1492.5,961.016,1492.5z    M955.33,1491.008c-0.084,0-0.169-0.021-0.247-0.065c-1.213-0.688-2.29-1.576-3.202-2.641c-0.18-0.21-0.155-0.525,0.055-0.705   c0.208-0.18,0.524-0.154,0.705,0.055c0.836,0.976,1.824,1.79,2.937,2.422c0.24,0.136,0.324,0.441,0.188,0.682   C955.673,1490.917,955.504,1491.008,955.33,1491.008z M966.792,1490.938c-0.172,0-0.339-0.089-0.432-0.248   c-0.14-0.238-0.059-0.544,0.18-0.684c1.107-0.647,2.085-1.475,2.906-2.458c0.178-0.211,0.493-0.239,0.704-0.063   c0.212,0.177,0.24,0.492,0.063,0.704c-0.896,1.073-1.962,1.975-3.17,2.681C966.965,1490.917,966.878,1490.938,966.792,1490.938z    M950.234,1485.053c-0.202,0-0.393-0.123-0.468-0.324c-0.491-1.302-0.749-2.675-0.767-4.08c-0.004-0.276,0.218-0.503,0.493-0.507   c0.003,0,0.005,0,0.007,0c0.273,0,0.496,0.22,0.5,0.493c0.017,1.289,0.253,2.548,0.702,3.742c0.098,0.258-0.033,0.546-0.292,0.644   C950.353,1485.043,950.293,1485.053,950.234,1485.053z M971.814,1484.92c-0.057,0-0.114-0.01-0.171-0.03   c-0.259-0.094-0.394-0.381-0.299-0.641c0.435-1.199,0.655-2.461,0.655-3.749l-0.003-0.274c-0.006-0.276,0.214-0.505,0.489-0.511   c0.004,0,0.008,0,0.011,0c0.271,0,0.494,0.217,0.5,0.489L973,1480.5c0,1.405-0.241,2.781-0.716,4.091   C972.211,1484.794,972.019,1484.92,971.814,1484.92z M950.138,1477.214c-0.055,0-0.11-0.009-0.165-0.028   c-0.261-0.091-0.398-0.376-0.307-0.637c0.459-1.318,1.142-2.538,2.026-3.624c0.175-0.214,0.489-0.244,0.704-0.071   c0.214,0.175,0.246,0.489,0.071,0.704c-0.812,0.995-1.437,2.112-1.858,3.321C950.538,1477.085,950.345,1477.214,950.138,1477.214z    M971.715,1476.814c-0.2,0-0.389-0.12-0.466-0.318c-0.466-1.191-1.131-2.284-1.979-3.249c-0.182-0.208-0.161-0.523,0.046-0.706   c0.206-0.182,0.522-0.161,0.706,0.046c0.924,1.053,1.65,2.245,2.158,3.546c0.101,0.257-0.026,0.547-0.284,0.647   C971.837,1476.804,971.775,1476.814,971.715,1476.814z M955.087,1471.135c-0.169,0-0.335-0.086-0.429-0.242   c-0.143-0.237-0.065-0.544,0.171-0.687c1.2-0.721,2.505-1.221,3.878-1.487c0.259-0.047,0.532,0.124,0.586,0.396   c0.052,0.271-0.125,0.533-0.396,0.586c-1.257,0.243-2.452,0.702-3.552,1.362C955.264,1471.111,955.175,1471.135,955.087,1471.135z    M966.544,1470.924c-0.082,0-0.165-0.02-0.242-0.063c-1.12-0.619-2.331-1.033-3.6-1.229c-0.272-0.042-0.459-0.298-0.417-0.571   c0.042-0.271,0.294-0.458,0.571-0.417c1.384,0.215,2.706,0.667,3.93,1.343c0.241,0.134,0.329,0.438,0.195,0.68   C966.891,1470.831,966.72,1470.924,966.544,1470.924z"/>
</g>
<g>
	<circle fill="#ABABC2" cx="997" cy="1496.5" r="14.87"/>
</g>
<g>
	<path fill="#ABABC2" d="M998.852,1515.911c-0.254,0-0.472-0.193-0.497-0.452c-0.026-0.274,0.175-0.519,0.45-0.546   c1.295-0.125,2.575-0.388,3.807-0.779c0.263-0.082,0.545,0.063,0.628,0.325c0.084,0.263-0.062,0.544-0.325,0.628   c-1.298,0.413-2.648,0.689-4.014,0.822C998.885,1515.91,998.868,1515.911,998.852,1515.911z M994.862,1515.881   c-0.019,0-0.038-0.001-0.057-0.003c-1.36-0.152-2.706-0.449-4.002-0.884c-0.262-0.087-0.402-0.371-0.314-0.633   c0.087-0.262,0.374-0.404,0.633-0.314c1.229,0.411,2.505,0.693,3.795,0.837c0.274,0.031,0.472,0.278,0.441,0.553   C995.33,1515.692,995.113,1515.881,994.862,1515.881z M1006.419,1513.505c-0.173,0-0.342-0.09-0.434-0.252   c-0.138-0.239-0.055-0.545,0.186-0.682c1.125-0.645,2.186-1.41,3.152-2.273c0.206-0.183,0.521-0.166,0.706,0.04   c0.184,0.206,0.166,0.521-0.04,0.706c-1.019,0.91-2.136,1.716-3.322,2.395C1006.589,1513.483,1006.504,1513.505,1006.419,1513.505z    M987.332,1513.36c-0.087,0-0.175-0.022-0.255-0.069c-1.175-0.696-2.28-1.519-3.287-2.445c-0.203-0.188-0.216-0.504-0.029-0.707   c0.188-0.202,0.503-0.214,0.707-0.029c0.955,0.88,2.004,1.661,3.119,2.32c0.237,0.141,0.316,0.448,0.176,0.686   C987.669,1513.272,987.502,1513.36,987.332,1513.36z M1012.338,1508.215c-0.103,0-0.206-0.031-0.296-0.097   c-0.223-0.163-0.271-0.477-0.107-0.699c0.768-1.048,1.426-2.178,1.955-3.358c0.112-0.252,0.409-0.366,0.66-0.252   c0.252,0.112,0.365,0.408,0.252,0.66c-0.558,1.245-1.251,2.437-2.061,3.542C1012.644,1508.144,1012.491,1508.215,1012.338,1508.215   z M981.492,1507.98c-0.156,0-0.311-0.073-0.407-0.211c-0.794-1.117-1.469-2.318-2.006-3.57c-0.109-0.254,0.008-0.548,0.262-0.656   c0.252-0.109,0.547,0.008,0.656,0.262c0.511,1.188,1.15,2.327,1.902,3.387c0.16,0.225,0.107,0.537-0.118,0.696   C981.693,1507.95,981.593,1507.98,981.492,1507.98z M1015.586,1500.969c-0.035,0-0.069-0.004-0.104-0.011   c-0.271-0.058-0.443-0.323-0.386-0.593c0.269-1.264,0.404-2.564,0.404-3.865c0-0.276,0.224-0.5,0.5-0.5s0.5,0.224,0.5,0.5   c0,1.37-0.144,2.741-0.426,4.072C1016.024,1500.808,1015.816,1500.969,1015.586,1500.969z M978.356,1500.689   c-0.233,0-0.442-0.165-0.489-0.403c-0.244-1.239-0.367-2.514-0.367-3.786l0.002-0.291c0.003-0.274,0.227-0.495,0.5-0.495   c0.002,0,0.003,0,0.005,0c0.276,0.003,0.498,0.229,0.495,0.505l-0.002,0.281c0,1.208,0.117,2.417,0.348,3.593   c0.054,0.271-0.123,0.534-0.394,0.587C978.421,1500.687,978.389,1500.689,978.356,1500.689z M1015.694,1493.593   c-0.236,0-0.447-0.169-0.491-0.411c-0.231-1.277-0.599-2.532-1.092-3.729c-0.105-0.255,0.016-0.548,0.271-0.652   c0.258-0.106,0.549,0.016,0.652,0.271c0.521,1.262,0.908,2.584,1.152,3.932c0.049,0.271-0.131,0.531-0.403,0.581   C1015.754,1493.59,1015.725,1493.593,1015.694,1493.593z M978.477,1492.751c-0.036,0-0.074-0.004-0.111-0.013   c-0.27-0.062-0.438-0.329-0.376-0.599c0.305-1.333,0.752-2.637,1.331-3.877c0.117-0.251,0.417-0.358,0.665-0.241   c0.25,0.117,0.358,0.414,0.241,0.665c-0.549,1.176-0.974,2.412-1.263,3.676C978.911,1492.594,978.705,1492.751,978.477,1492.751z    M1012.671,1486.255c-0.159,0-0.315-0.076-0.412-0.217c-0.734-1.069-1.584-2.064-2.524-2.957c-0.2-0.189-0.208-0.506-0.018-0.707   c0.19-0.2,0.506-0.206,0.707-0.018c0.99,0.94,1.885,1.988,2.659,3.115c0.156,0.228,0.099,0.539-0.129,0.695   C1012.867,1486.227,1012.769,1486.255,1012.671,1486.255z M981.832,1485.556c-0.105,0-0.211-0.033-0.302-0.102   c-0.22-0.166-0.264-0.479-0.097-0.7c0.825-1.092,1.767-2.099,2.799-2.991c0.208-0.181,0.524-0.158,0.705,0.051   s0.158,0.524-0.051,0.705c-0.979,0.848-1.872,1.803-2.656,2.839C982.133,1485.487,981.983,1485.556,981.832,1485.556z    M1006.912,1480.787c-0.09,0-0.18-0.023-0.261-0.073c-1.107-0.679-2.288-1.24-3.51-1.67c-0.261-0.092-0.397-0.377-0.306-0.638   c0.092-0.26,0.377-0.398,0.638-0.306c1.287,0.453,2.532,1.045,3.699,1.76c0.236,0.145,0.31,0.452,0.166,0.688   C1007.244,1480.702,1007.08,1480.787,1006.912,1480.787z M987.832,1480.354c-0.176,0-0.347-0.094-0.438-0.259   c-0.134-0.241-0.046-0.546,0.196-0.679c1.197-0.66,2.468-1.195,3.776-1.591c0.263-0.08,0.543,0.07,0.623,0.334   c0.08,0.265-0.069,0.543-0.334,0.623c-1.241,0.375-2.447,0.883-3.583,1.509C987.997,1480.335,987.914,1480.354,987.832,1480.354z    M999.424,1478.153c-0.021,0-0.043-0.001-0.064-0.004c-1.277-0.164-2.607-0.19-3.887-0.088c-0.26,0.028-0.517-0.183-0.538-0.458   c-0.022-0.274,0.183-0.516,0.458-0.538c1.345-0.109,2.747-0.08,4.094,0.092c0.273,0.035,0.468,0.285,0.433,0.56   C999.887,1477.969,999.671,1478.153,999.424,1478.153z"/>
</g>

</g>
</g>

<!-- ITEM 2 -->
<g transform="translate(538.0 251.0) scale(-1.4491740096663404 1.449569477865074) rotate(-0.0 128.69400000000002 293.1905)">
<g transform="translate(-0.0 -0.0)">
<defs><linearGradient id="linear-gradient-i2" x1="87.76" y1="-359.002" x2="87.76" y2="-191.523" gradientTransform="translate(0 480)" gradientUnits="userSpaceOnUse"><stop offset="0" stop-color="#f48b94"/><stop offset="0.405" stop-color="#f4a9a6"/><stop offset="0.499" stop-color="#fed3b5"/><stop offset="0.599" stop-color="#dbecc2"/><stop offset="1" stop-color="#addcc8"/></linearGradient><linearGradient id="linear-gradient-2-i2" x1="154.816" y1="-671.002" x2="154.816" y2="-503.523" gradientTransform="translate(0 792)" xlink:href="#linear-gradient-i2"/><linearGradient id="linear-gradient-3-i2" x1="135.054" y1="-573.791" x2="135.054" y2="-216.025" gradientTransform="translate(0 792)" gradientUnits="userSpaceOnUse"><stop offset="0" stop-color="#77879d"/><stop offset="0.089" stop-color="#a1978e"/><stop offset="0.188" stop-color="#c9a780"/><stop offset="0.279" stop-color="#e5b275"/><stop offset="0.358" stop-color="#f7b96f"/><stop offset="0.415" stop-color="#fdbb6d"/><stop offset="0.499" stop-color="#fdbb9f"/><stop offset="0.599" stop-color="#d1d2d1"/><stop offset="1" stop-color="#feceaa"/></linearGradient><linearGradient id="linear-gradient-4-i2" x1="179.808" y1="-573.791" x2="179.808" y2="-216.025" xlink:href="#linear-gradient-3-i2"/><linearGradient id="linear-gradient-5-i2" x1="127.36" y1="-671.002" x2="127.36" y2="-503.523" gradientTransform="translate(0 792)" xlink:href="#linear-gradient-i2"/></defs><title>girl_7</title><g id="Layer_2-i2" data-name="Layer 2"><g id="Layer_1-2-i2" data-name="Layer 1"><path d="M160.267,122.576a27.226,27.226,0,0,0-38.12,5.107L79.956,182.828l-53.59-5.774a19.689,19.689,0,0,0-8.29,38.268l68.542,22.65a23.2,23.2,0,0,0,25.759-7.92l1.628-2.073,51.369-67.209A27.322,27.322,0,0,0,160.267,122.576Z" fill="url(#linear-gradient-i2)"/><path d="M107.417,201.85c2.443-27.387,21.17-24.5,15.544-43.523s4.96-44.115,25.981-42.265c16.21,1.407,17.395.888,24.278,1.481,16.655,1.48,28.2,15.692,28.942,31.31.592,13.4-3.923,53.96-4.441,60.325Z" fill="url(#linear-gradient-2-i2)"/><path d="M184.841,226.573,174.109,313.4l-5.33,43.45C167,371.355,165.3,385.788,163.3,400.222l-22.946,173.5L88.1,566.839c-.37-3.7-.518-7.4-.814-11.1-.222-3.7-.37-7.4-.592-11.1l-.3-5.552-.222-5.551L85.8,522.5q-.666-22.095-.518-44.116C85.36,449,86.322,419.763,87.8,390.6c.37-7.254.814-14.582,1.184-21.836l.667-10.955.3-5.477.37-5.478.814-10.881.888-10.881c.592-7.253,1.333-14.507,2.073-21.761q2.331-21.762,5.551-43.3c2.221-14.36,5.478-36.714,8.883-51Z" fill="url(#linear-gradient-3-i2)"/><g opacity="0.3"><path d="M104.753,538.712a3.743,3.743,0,0,1-3.479-2.443,3.649,3.649,0,0,1,2.22-4.737l5.034-1.85a3.7,3.7,0,1,1,2.516,6.958l-5.033,1.85A3.457,3.457,0,0,1,104.753,538.712Z" fill="#fff"/><path d="M124.442,567.95a3.009,3.009,0,0,1-1.555-.37,3.649,3.649,0,0,1-1.776-4.886l2.294-4.959a3.676,3.676,0,0,1,6.662,3.109l-2.294,4.959A3.646,3.646,0,0,1,124.442,567.95Z" fill="#fff"/><path d="M94.982,564.1a3.745,3.745,0,0,1-3.479-2.443l-1.85-5.033a3.7,3.7,0,0,1,6.958-2.517l1.85,5.033a3.65,3.65,0,0,1-2.221,4.738A3.457,3.457,0,0,1,94.982,564.1Z" fill="#fff"/><path d="M145.389,535.381l-.888,6.81a3.714,3.714,0,0,1-.888.148,3.982,3.982,0,0,1-1.555-.37l-4.959-2.3a3.675,3.675,0,1,1,3.109-6.661l4.959,2.294C145.241,535.307,145.315,535.381,145.389,535.381Z" fill="#fff"/><path d="M107.2,423.39a3.744,3.744,0,0,1-3.479-2.443,3.649,3.649,0,0,1,2.221-4.737l5.033-1.85a3.7,3.7,0,0,1,2.517,6.958l-5.033,1.85A3.466,3.466,0,0,1,107.2,423.39Z" fill="#fff"/><path d="M126.884,452.628a3.005,3.005,0,0,1-1.554-.37,3.648,3.648,0,0,1-1.777-4.886l2.3-4.959a3.676,3.676,0,0,1,6.662,3.109l-2.295,4.959A3.646,3.646,0,0,1,126.884,452.628Z" fill="#fff"/><path d="M97.425,448.779a3.744,3.744,0,0,1-3.479-2.443L92.1,441.3a3.7,3.7,0,0,1,6.958-2.517l1.851,5.033a3.65,3.65,0,0,1-2.221,4.738A3.457,3.457,0,0,1,97.425,448.779Z" fill="#fff"/><path d="M104.975,478.831a3.7,3.7,0,0,1-1.259-7.18l5.108-1.851a3.7,3.7,0,1,1,2.516,6.958l-5.107,1.85A3.735,3.735,0,0,1,104.975,478.831Z" fill="#fff"/><path d="M124.664,507.994a3.982,3.982,0,0,1-1.555-.37,3.731,3.731,0,0,1-1.776-4.959l2.294-4.886a3.725,3.725,0,0,1,6.736,3.183l-2.294,4.886A3.834,3.834,0,0,1,124.664,507.994Z" fill="#fff"/><path d="M95.278,504.219a3.744,3.744,0,0,1-3.479-2.442l-1.85-5.108a3.7,3.7,0,1,1,6.958-2.516l1.85,5.107A3.708,3.708,0,0,1,96.536,504,3.759,3.759,0,0,1,95.278,504.219Z" fill="#fff"/><path d="M146.055,427.017a3.977,3.977,0,0,1-1.554-.37l-4.885-2.3a3.725,3.725,0,1,1,3.183-6.735l4.885,2.294a3.731,3.731,0,0,1,1.776,4.959A3.832,3.832,0,0,1,146.055,427.017Z" fill="#fff"/><path d="M155.974,402a3.979,3.979,0,0,1-1.554-.371,3.73,3.73,0,0,1-1.777-4.959l2.295-4.885a3.725,3.725,0,1,1,6.735,3.183l-2.294,4.885A3.835,3.835,0,0,1,155.974,402Z" fill="#fff"/><path d="M143.835,482.457a3.982,3.982,0,0,1-1.555-.37l-4.885-2.294a3.725,3.725,0,0,1,3.183-6.736l4.885,2.295a3.73,3.73,0,0,1,1.777,4.959A3.834,3.834,0,0,1,143.835,482.457Z" fill="#fff"/><path d="M157.306,445.374l-1.48,11.4a3.462,3.462,0,0,1-2.073.666,3.977,3.977,0,0,1-1.554-.37,3.73,3.73,0,0,1-1.776-4.959l2.294-4.886A3.672,3.672,0,0,1,157.306,445.374Z" fill="#fff"/><path d="M109.638,308.068a3.7,3.7,0,0,1-1.258-7.18l5.107-1.85A3.7,3.7,0,0,1,116,306l-5.108,1.85A3.759,3.759,0,0,1,109.638,308.068Z" fill="#fff"/><path d="M129.327,337.306a3.005,3.005,0,0,1-1.554-.37A3.648,3.648,0,0,1,126,332.05l2.3-4.959a3.675,3.675,0,0,1,6.661,3.109l-2.294,4.959A3.645,3.645,0,0,1,129.327,337.306Z" fill="#fff"/><path d="M99.867,333.457a3.746,3.746,0,0,1-3.479-2.443l-1.85-5.033a3.7,3.7,0,0,1,6.958-2.517l1.85,5.033a3.65,3.65,0,0,1-2.22,4.738A3.462,3.462,0,0,1,99.867,333.457Z" fill="#fff"/><path d="M107.417,363.509a3.746,3.746,0,0,1-3.479-2.443,3.708,3.708,0,0,1,2.221-4.737l5.107-1.851a3.7,3.7,0,1,1,2.517,6.958l-5.107,1.85A3.745,3.745,0,0,1,107.417,363.509Z" fill="#fff"/><path d="M127.106,392.672a3.977,3.977,0,0,1-1.554-.37,3.73,3.73,0,0,1-1.776-4.959l2.294-4.886a3.725,3.725,0,0,1,6.736,3.183l-2.3,4.886A3.833,3.833,0,0,1,127.106,392.672Z" fill="#fff"/><path d="M97.721,388.9a3.743,3.743,0,0,1-3.479-2.443l-1.851-5.107a3.7,3.7,0,0,1,6.958-2.517l1.851,5.108a3.708,3.708,0,0,1-2.221,4.737A3.759,3.759,0,0,1,97.721,388.9Z" fill="#fff"/><path d="M148.5,311.7a3.977,3.977,0,0,1-1.554-.37l-4.886-2.3a3.725,3.725,0,0,1,3.183-6.735l4.885,2.294a3.731,3.731,0,0,1,1.777,4.959A3.833,3.833,0,0,1,148.5,311.7Z" fill="#fff"/><path d="M158.417,286.677a3.962,3.962,0,0,1-1.555-.371,3.731,3.731,0,0,1-1.776-4.959l2.294-4.885a3.725,3.725,0,1,1,6.736,3.183l-2.3,4.885A3.833,3.833,0,0,1,158.417,286.677Z" fill="#fff"/><path d="M174.405,310.733l-.3,2.664-.593,5.034-1.11-3.035A3.7,3.7,0,0,1,174.405,310.733Z" fill="#fff"/><path d="M146.277,367.135a3.977,3.977,0,0,1-1.554-.37l-4.885-2.294a3.725,3.725,0,1,1,3.183-6.736l4.885,2.295a3.73,3.73,0,0,1,1.776,4.959A3.833,3.833,0,0,1,146.277,367.135Z" fill="#fff"/><path d="M156.2,342.117a3.977,3.977,0,0,1-1.554-.37,3.731,3.731,0,0,1-1.777-4.959l2.295-4.886a3.725,3.725,0,0,1,6.735,3.183L159.6,339.97A3.833,3.833,0,0,1,156.2,342.117Z" fill="#fff"/><path d="M137.1,215.618l-2,4.219a3.724,3.724,0,0,1-3.33,2.147,3.006,3.006,0,0,1-1.555-.37,3.649,3.649,0,0,1-1.776-4.886l1.332-2.812Z" fill="#fff"/><path d="M109.86,248.187a3.745,3.745,0,0,1-3.479-2.443,3.708,3.708,0,0,1,2.221-4.737l5.107-1.851a3.7,3.7,0,0,1,2.517,6.958l-5.108,1.85A3.735,3.735,0,0,1,109.86,248.187Z" fill="#fff"/><path d="M129.549,277.35a3.977,3.977,0,0,1-1.554-.37,3.731,3.731,0,0,1-1.777-4.959l2.3-4.886a3.725,3.725,0,0,1,6.736,3.183l-2.295,4.886A3.834,3.834,0,0,1,129.549,277.35Z" fill="#fff"/><path d="M101.422,273.353a3.76,3.76,0,0,1-1.259.222,3.823,3.823,0,0,1-2.368-.814c.518-3.849,1.036-7.7,1.628-11.473a3.6,3.6,0,0,1,2.3,2.221l1.85,5.107A3.613,3.613,0,0,1,101.422,273.353Z" fill="#fff"/><path d="M148.72,251.813a3.977,3.977,0,0,1-1.554-.37l-4.886-2.294a3.725,3.725,0,0,1,3.183-6.736l4.885,2.295a3.73,3.73,0,0,1,1.777,4.959A3.834,3.834,0,0,1,148.72,251.813Z" fill="#fff"/><path d="M163.45,221.688l-1.332,2.96a3.646,3.646,0,0,1-3.331,2.147,3.869,3.869,0,0,1-1.555-.3,3.718,3.718,0,0,1-1.85-4.885l.74-1.629Z" fill="#fff"/><path d="M181.066,257.069l-.592,4.959a3.976,3.976,0,0,1-1.184.74,4.1,4.1,0,0,1-1.258.222,3.641,3.641,0,0,1-3.479-2.442l-1.851-5.034A3.7,3.7,0,1,1,179.66,253Z" fill="#fff"/></g><path d="M140.8,279.645c3.627,23.464,9.919,61.066-2.813,80.607s8.735,63.952,1.333,86.158,10.066,59.29,7.772,76.684l20.059-152.7Z" fill="#2b2b2b"/><path d="M230.807,383.79c-1.184-7.032-2.22-14.064-3.256-21.1l-3.257-21.1s-27.98-118.135-26.647-132.421l-90.082-9.1c-.962,11.325,7.476,25.981,20.948,33.9l.222,3.627.888,10.659c.3,3.552.666,7.105,1.036,10.658.444,3.553.741,7.106,1.259,10.585,1.7,14.138,3.775,28.275,6.143,42.265l.888,5.255.963,5.256,1.85,10.51c1.333,7.032,2.591,13.99,4.071,21.022l2.147,10.511,2.294,10.436c1.481,6.958,3.035,13.916,4.812,20.874q10.324,41.636,22.724,82.9C182.029,492.3,186.4,506,191.059,519.689l3.553,10.215,1.776,5.107,1.925,5.107,3.775,10.215c1.332,3.405,2.591,6.81,4.071,10.141l45.966-24.131Z" fill="url(#linear-gradient-4-i2)"/><g opacity="0.3"><path d="M209.49,526.795a3.011,3.011,0,0,1-1.555-.37l-4.959-2.295a3.675,3.675,0,1,1,3.109-6.661l4.959,2.294a3.693,3.693,0,0,1-1.554,7.032Z" fill="#fff"/><path d="M248.794,512.583h-.37a3.7,3.7,0,0,1-1.258-7.18l.592-.222Z" fill="#fff"/><path d="M219.408,501.776a3.977,3.977,0,0,1-1.554-.37,3.73,3.73,0,0,1-1.776-4.959l2.294-4.885a3.725,3.725,0,1,1,6.736,3.183l-2.3,4.885A3.833,3.833,0,0,1,219.408,501.776Z" fill="#fff"/><path d="M238.727,538.046a3.742,3.742,0,0,1-3.478-2.443L233.4,530.5a3.7,3.7,0,0,1,6.958-2.517l1.85,5.108a3.707,3.707,0,0,1-2.22,4.737A3.76,3.76,0,0,1,238.727,538.046Z" fill="#fff"/><path d="M222.813,550.185l-.962,2-7.4,3.849a3.7,3.7,0,0,1-.666-4.145l2.3-4.886a3.725,3.725,0,1,1,6.735,3.183Z" fill="#fff"/><path d="M173.072,407.846a3.745,3.745,0,0,1-3.479-2.443,3.649,3.649,0,0,1,2.221-4.737l5.033-1.85a3.7,3.7,0,1,1,2.517,6.958l-5.033,1.85A3.462,3.462,0,0,1,173.072,407.846Z" fill="#fff"/><path d="M192.761,437.084a3.005,3.005,0,0,1-1.554-.37,3.648,3.648,0,0,1-1.776-4.886l2.294-4.959a3.676,3.676,0,0,1,6.662,3.109l-2.295,4.959A3.646,3.646,0,0,1,192.761,437.084Z" fill="#fff"/><path d="M164.782,432.939c-1.11-4.071-2.146-8.069-3.257-12.14a3.649,3.649,0,0,1,3.405,2.443l1.851,5.033A3.732,3.732,0,0,1,164.782,432.939Z" fill="#fff"/><path d="M177.217,461.214l-4.071,1.48c-.666-2.368-1.406-4.737-2.072-7.106l3.627-1.332a3.7,3.7,0,0,1,2.516,6.958Z" fill="#fff"/><path d="M190.541,492.45a3.977,3.977,0,0,1-1.554-.37,3.731,3.731,0,0,1-1.777-4.959l2.295-4.886a3.725,3.725,0,1,1,6.735,3.183l-2.294,4.885A3.833,3.833,0,0,1,190.541,492.45Z" fill="#fff"/><path d="M211.932,411.473a3.977,3.977,0,0,1-1.554-.37l-4.885-2.3a3.725,3.725,0,1,1,3.183-6.735l4.885,2.294a3.73,3.73,0,0,1,1.776,4.959A3.832,3.832,0,0,1,211.932,411.473Z" fill="#fff"/><path d="M221.851,386.454a3.977,3.977,0,0,1-1.554-.37,3.73,3.73,0,0,1-1.777-4.959l2.295-4.885a3.725,3.725,0,1,1,6.736,3.183l-2.295,4.885A3.834,3.834,0,0,1,221.851,386.454Z" fill="#fff"/><path d="M209.712,466.913a3.977,3.977,0,0,1-1.554-.37l-4.886-2.294a3.725,3.725,0,0,1,3.183-6.736l4.885,2.3a3.73,3.73,0,0,1,1.777,4.959A3.834,3.834,0,0,1,209.712,466.913Z" fill="#fff"/><path d="M219.63,441.9a3.977,3.977,0,0,1-1.554-.37,3.73,3.73,0,0,1-1.776-4.959l2.294-4.886a3.725,3.725,0,0,1,6.736,3.183l-2.3,4.885A3.832,3.832,0,0,1,219.63,441.9Z" fill="#fff"/><path d="M238.95,478.09a3.743,3.743,0,0,1-3.479-2.442l-1.851-5.034a3.7,3.7,0,1,1,6.958-2.516l1.85,5.033a3.648,3.648,0,0,1-2.22,4.737A3.457,3.457,0,0,1,238.95,478.09Z" fill="#fff"/><path d="M139.912,304.589a3.749,3.749,0,0,1-2.739,2.073c-.444-2.665-.888-5.33-1.258-7.994l2.22,1.036A3.625,3.625,0,0,1,139.912,304.589Z" fill="#fff"/><path d="M175.515,292.524a3.7,3.7,0,0,1-1.258-7.18l5.107-1.85a3.7,3.7,0,0,1,2.517,6.958l-5.108,1.85A3.759,3.759,0,0,1,175.515,292.524Z" fill="#fff"/><path d="M146.5,281.717a3.977,3.977,0,0,1-1.554-.37,3.73,3.73,0,0,1-1.776-4.959l2.294-4.885a3.725,3.725,0,1,1,6.736,3.182l-2.3,4.886A3.833,3.833,0,0,1,146.5,281.717Z" fill="#fff"/><path d="M195.2,321.762a3.005,3.005,0,0,1-1.554-.37,3.648,3.648,0,0,1-1.777-4.886l2.3-4.959a3.676,3.676,0,0,1,6.662,3.109l-2.3,4.959A3.646,3.646,0,0,1,195.2,321.762Z" fill="#fff"/><path d="M165.744,317.913a3.744,3.744,0,0,1-3.478-2.443l-1.851-5.033a3.7,3.7,0,0,1,6.958-2.517l1.85,5.033a3.649,3.649,0,0,1-2.22,4.738A3.458,3.458,0,0,1,165.744,317.913Z" fill="#fff"/><path d="M173.294,347.964a3.7,3.7,0,0,1-1.258-7.179l5.107-1.851a3.7,3.7,0,1,1,2.517,6.958l-5.107,1.85A3.76,3.76,0,0,1,173.294,347.964Z" fill="#fff"/><path d="M149.9,330.126l-2.294,4.885a3.811,3.811,0,0,1-3.331,2.147,3.977,3.977,0,0,1-1.554-.37c-.074,0-.149-.074-.223-.074-.222-1.333-.518-2.591-.74-3.923l-.37-1.925h0l1.851-3.849a3.73,3.73,0,0,1,4.959-1.776A3.679,3.679,0,0,1,149.9,330.126Z" fill="#fff"/><path d="M192.984,377.128a3.977,3.977,0,0,1-1.555-.37,3.73,3.73,0,0,1-1.776-4.959l2.294-4.886a3.725,3.725,0,0,1,6.736,3.183l-2.295,4.886A3.832,3.832,0,0,1,192.984,377.128Z" fill="#fff"/><path d="M163.6,373.353a3.744,3.744,0,0,1-3.479-2.443l-1.85-5.107a3.7,3.7,0,1,1,6.957-2.517l1.851,5.108a3.708,3.708,0,0,1-2.221,4.737A3.759,3.759,0,0,1,163.6,373.353Z" fill="#fff"/><path d="M213.857,296.077a2.409,2.409,0,0,1-1.036-.3l-4.886-2.3a3.725,3.725,0,0,1,3.183-6.735l.814.37C212.525,290.229,213.191,293.19,213.857,296.077Z" fill="#fff"/><path d="M212.155,351.591a3.977,3.977,0,0,1-1.555-.37l-4.885-2.294a3.725,3.725,0,1,1,3.183-6.736l4.885,2.3a3.73,3.73,0,0,1,1.776,4.959A3.832,3.832,0,0,1,212.155,351.591Z" fill="#fff"/><path d="M220.741,326.277c-.074,0-.148-.074-.222-.074a3.731,3.731,0,0,1-1.777-4.959l.592-1.185C219.779,322.28,220.3,324.352,220.741,326.277Z" fill="#fff"/><path d="M140.134,244.708a3.646,3.646,0,0,1-3.331,2.146,3.977,3.977,0,0,1-1.554-.37l-4.886-2.3a4.311,4.311,0,0,1-1.11-.814l-.37-4.589a3.817,3.817,0,0,1,4.663-1.332l4.885,2.294A3.767,3.767,0,0,1,140.134,244.708Z" fill="#fff"/><path d="M175.737,232.643a3.745,3.745,0,0,1-3.479-2.443,3.708,3.708,0,0,1,2.221-4.737l5.107-1.851a3.7,3.7,0,0,1,2.517,6.958L177,232.42A3.76,3.76,0,0,1,175.737,232.643Z" fill="#fff"/><path d="M146.722,221.836a3.006,3.006,0,0,1-1.555-.37,3.648,3.648,0,0,1-1.776-4.886l2.294-4.959a3.676,3.676,0,0,1,6.662,3.109l-2.3,4.959A3.646,3.646,0,0,1,146.722,221.836Z" fill="#fff"/><path d="M195.426,261.806a3.977,3.977,0,0,1-1.554-.37,3.731,3.731,0,0,1-1.777-4.959l2.295-4.886a3.725,3.725,0,0,1,6.736,3.183l-2.3,4.886A3.833,3.833,0,0,1,195.426,261.806Z" fill="#fff"/><path d="M166.041,258.031a3.743,3.743,0,0,1-3.479-2.443l-1.851-5.107a3.7,3.7,0,0,1,6.958-2.517l1.85,5.108a3.707,3.707,0,0,1-2.22,4.737A3.759,3.759,0,0,1,166.041,258.031Z" fill="#fff"/></g><path d="M108.418,200.074c-.029,0-.059,0-.089,0a1,1,0,0,1-.908-1.085c1.235-13.845,6.58-20.18,10.876-25.272s7.4-8.771,4.7-17.879a38.592,38.592,0,0,1-1.529-11.671,1.022,1.022,0,0,1,1.019-.982,1,1,0,0,1,.981,1.019,36.6,36.6,0,0,0,1.447,11.067c3,10.141-.752,14.587-5.094,19.736-4.115,4.876-9.234,10.944-10.413,24.16A1,1,0,0,1,108.418,200.074Z" fill="#2b2b2b"/><circle cx="184.841" cy="23.612" r="23.612" fill="#ea7068"/><circle cx="162.266" cy="44.264" r="19.911" fill="#2b2b2b"/><path id="SVGID-i2" d="M141.614,100.148l19.023.666a17.75,17.75,0,0,0,18.431-17.172L180.1,55a28.59,28.59,0,0,0-27.535-29.533h0A28.591,28.591,0,0,0,123.035,53l-.888,26.277A20.177,20.177,0,0,0,141.614,100.148Z" fill="#fdc068"/><path d="M125.33,61.14a3.2,3.2,0,0,1-2.665,3.183l.222-6.366A3.264,3.264,0,0,1,125.33,61.14Z" fill="#2b2b2b"/><path d="M155.456,133.161l22.724-7.476a2.959,2.959,0,0,0,2-2.813l-.666-52.184-30.348-1.036-4.811,54.774A8.473,8.473,0,0,0,155.456,133.161Z" fill="#fdc068"/><path d="M129.623,71.133a1.374,1.374,0,0,1-.518-.149l-2.665-1.7a3.064,3.064,0,0,1-1.11-2.147,3.3,3.3,0,0,1,.74-2.294l4.219-4.663a.944.944,0,0,1,1.407,1.258L127.477,66.1a1.343,1.343,0,0,0,.148,1.851l2.516,1.554a.879.879,0,0,1,.3,1.258A1.189,1.189,0,0,1,129.623,71.133Z" fill="#2b2b2b"/><path d="M132.51,81.865a4.219,4.219,0,0,1-.962-.074,6.369,6.369,0,0,1-3.923-2.96.927.927,0,1,1,1.628-.889,4.332,4.332,0,0,0,2.665,2c1.258.222,2.664-.3,4.145-1.555a.948.948,0,0,1,1.184,1.481A7.686,7.686,0,0,1,132.51,81.865Z" fill="#2b2b2b"/><polygon points="146.499 100.296 158.861 100.74 145.463 112.509 146.499 100.296" fill="#2b2b2b"/><circle cx="140.578" cy="61.954" r="3.257" fill="#2b2b2b"/><path d="M48.2,586.381l84.308-.3a8.071,8.071,0,0,0,8.068-7.994l.222-10.658-53.294.74-40.34,10.14A4.093,4.093,0,0,0,48.2,586.381Z" fill="#2b2b2b"/><path d="M175.515,586.381l17.765-.074,59.585-29.534a8.184,8.184,0,0,0,3.775-10.733l-4.515-9.7-47.52,24.13-14.434,13.841-15.692,3.923C169.816,579.5,170.7,586.455,175.515,586.381Z" fill="#2b2b2b"/><path d="M28.147,218.476,14.271,214.5a19.59,19.59,0,0,1,7.865-38.277l18.946,2.453Z" fill="#fdc068"/><path d="M77.791,311.021l-11.572,8.626a19.591,19.591,0,0,1-25.672-29.462l13.438-13.58Z" fill="#fdc068"/><path d="M53.531,277.054l58.031-59.141-5.773,7.18,44.485-79.423a27.191,27.191,0,0,1,47.447,26.573l-44.486,79.422-.814,1.481a18.538,18.538,0,0,1-4.959,5.7L77.588,311.473Z" fill="url(#linear-gradient-5-i2)"/><path d="M178.55,207.476a1.372,1.372,0,0,1-.518-.148,1.1,1.1,0,0,1-.444-1.48l19.171-34.2a1.093,1.093,0,0,1,1.924,1.036l-19.171,34.2A1.155,1.155,0,0,1,178.55,207.476Z" fill="#2b2b2b"/><path d="M119.186,201.554a1.07,1.07,0,0,1-.518-.148,1.1,1.1,0,0,1-.444-1.48L144.057,155a1.093,1.093,0,1,1,1.924,1.037l-25.832,44.929A1.156,1.156,0,0,1,119.186,201.554Z" fill="#2b2b2b"/><path d="M123.035,52.924l10.733-11.843,6.292,5.773a39.152,39.152,0,0,1,11.177,18.283c2.146,7.7,4.663,16.876,4.811,17.246,5.181,14.582,13.619,19.393,26.425,19.393h6.588L180.4,53c0-15.4-13.175-27.831-28.571-27.831h-.888a27.753,27.753,0,0,0-27.906,27.757Z" fill="#ea7068"/><path d="M160.859,419.763a.977.977,0,0,1-1.036-.814c-6.292-23.538-22.058-102.369-25.759-125.611a1.089,1.089,0,0,1,2.147-.37c3.7,23.242,19.467,102,25.759,125.463a1.1,1.1,0,0,1-.815,1.332Z" fill="#2b2b2b"/></g></g>
</g>
</g>

<!-- ITEM 3 -->
<g transform="translate(623.0 222.0) scale(1.1785234332674297 1.1775025747264511) rotate(0.0 142.12700000000004 294.6915)">
<g transform="translate(-0.0 -0.0)">
<defs><linearGradient id="linear-gradient-i3" x1="111.815" y1="-751.965" x2="111.815" y2="-880.702" gradientTransform="matrix(1, 0, 0, -1, 0, -650.21)" gradientUnits="userSpaceOnUse"><stop offset="0" stop-color="#f9d5ff"/><stop offset="1" stop-color="#f4c5a1"/></linearGradient><linearGradient id="linear-gradient-2-i3" x1="139.904" y1="-1238.257" x2="139.904" y2="-837.656" gradientTransform="matrix(1, 0, 0, -1, 0, -650.21)" gradientUnits="userSpaceOnUse"><stop offset="0" stop-color="#9774ac"/><stop offset="0.4" stop-color="#47a6d3"/><stop offset="0.5" stop-color="#a7a7ae"/><stop offset="0.59" stop-color="#e89ac0"/><stop offset="1" stop-color="#bfe7d1"/></linearGradient><linearGradient id="linear-gradient-3-i3" x1="216.973" y1="-1237.591" x2="216.973" y2="-852.786" xlink:href="#linear-gradient-2-i3"/><linearGradient id="linear-gradient-4-i3" x1="122.695" y1="-690.786" x2="122.695" y2="-897.955" gradientTransform="matrix(1, -0.03, -0.03, -1, 34.045, -617.238)" xlink:href="#linear-gradient-i3"/><linearGradient id="linear-gradient-5-i3" x1="122.749" y1="-1207.212" x2="122.749" y2="-808.461" gradientTransform="matrix(1, -0.03, -0.03, -1, 34.045, -617.238)" xlink:href="#linear-gradient-2-i3"/><linearGradient id="linear-gradient-6-i3" x1="312.411" y1="-704.077" x2="312.411" y2="-819.963" gradientTransform="matrix(1, 0.09, 0.09, -1, -45.154, -623.896)" xlink:href="#linear-gradient-i3"/></defs><title>student_with_books</title><g id="Layer_2-i3" data-name="Layer 2"><g id="Layer_1-2-i3" data-name="Layer 1"><circle cx="169.223" cy="19.035" r="3.067" fill="#bfd9ff"/><path d="M193.967,136.52c-3.681,9-7.668,17.791-11.554,26.585s-7.975,17.484-12.065,26.278c-4.09,8.691-8.282,17.382-12.475,26.073l-6.339,12.986-6.442,12.986-.716,1.431a7.639,7.639,0,0,1-.715,1.227l-7.158,11.35-7.26,11.247c-4.8,7.464-9.713,14.929-14.621,22.393l-7.362,11.145-3.681,5.522L99.8,311.264c-5.011,7.362-10.021,14.724-15.236,22.086l-2.045,2.863a15.321,15.321,0,0,1-2.76,2.965c-5.113,3.988-10.328,7.976-15.44,11.861a23.066,23.066,0,0,1-30.368-34.56c4.5-4.7,9.1-9.2,13.8-13.8L42.945,308.5c3.885-7.975,7.975-15.951,12.167-23.926l3.068-5.931,3.067-5.93,6.238-11.861c4.192-7.873,8.384-15.746,12.679-23.517l6.441-11.657,6.544-11.656-1.431,2.556,5.726-13.292L103.272,190c3.885-8.793,7.873-17.484,11.963-26.38,4.09-8.691,8.18-17.485,12.372-26.074,4.193-8.691,8.385-17.28,12.986-25.869a29.458,29.458,0,0,1,53.374,24.847Z" fill="url(#linear-gradient-i3)"/><path d="M11.963,589.383l88.344-.409c4.6,0,8.691-4.4,9-9l.715-11.146-55.828.818L11.35,580.282C6.339,581.509,6.851,589.383,11.963,589.383Z" fill="#2b2b2b"/><path d="M225.562,209.73,163.6,365.252l-5.521,21.268-3.886,15.03L109.714,571.182,54.6,569.751c-2.454-23.109,8.385-115.031,15.133-168.2.716-5.214,1.329-10.122,1.841-14.519a137.008,137.008,0,0,1,11.758-40.082c.921-1.84,1.739-3.681,2.761-5.521,24.54-46.933,58.589-146.319,60.532-157.465Z" fill="url(#linear-gradient-2-i3)"/><path d="M158.078,347.051v39.571l-3.886,15.031H69.836c.716-5.215,1.33-10.123,1.841-14.52a133.947,133.947,0,0,1,11.759-40.082Z" fill="#2b2b2b"/><path d="M187.321,588.769l88.344-.409a8.443,8.443,0,0,0,8.486-8.384l.1-8.9-55.829-1.534-42.331,10.532C181.186,581.509,182.209,588.769,187.321,588.769Z" fill="#2b2b2b"/><path d="M229.141,199.4l8.385,185.583,46.728,186.2-55.317-1.431c-3.068-15.849-63.4-135.992-74.54-168.2a69.393,69.393,0,0,1-3.374-15.03l-1.33-180.471Z" fill="url(#linear-gradient-3-i3)"/><polygon points="154.499 371.693 233.436 294.7 231.595 245.927 181.8 299.71 154.499 371.693" fill="#2b2b2b"/><path d="M154.5,402.777a1.065,1.065,0,0,1-1.023-.715c-6.339-14.315-2.658-44.377-2.454-45.6a1.085,1.085,0,0,1,2.148.307c-.1.307-3.783,30.675,2.249,44.479a1.056,1.056,0,0,1-.613,1.431A1.037,1.037,0,0,1,154.5,402.777Z" fill="#2b2b2b"/><path d="M127.3,185.906c1.738-28.732,21.37-26.38,14.928-46.114S146.115,93.37,168.2,94.7c16.974,1.022,32.516-2.352,46.217,8.18,26.79,20.756,15.542,29.55,20.246,87.627Z" fill="url(#linear-gradient-4-i3)"/><path d="M234.663,190.405c-.921,15.133-18.1,37.014-44.581,35.685l-21.268-1.738c-24.131-1.227-42.331-23.824-41.309-40.286Z" fill="url(#linear-gradient-5-i3)"/><path d="M169.223,93.677a33.009,33.009,0,0,0-17.792,6.646l20.246,9.612Z" fill="#2b2b2b"/><path d="M180.266,111.469l25.664-9.2L196.217,63.82l-34.765-.2,6.953,38.957a8.763,8.763,0,0,0,8.384,9.305A8.144,8.144,0,0,0,180.266,111.469Z" fill="#fdc068"/><polygon points="165.337 85.702 180.573 79.976 168.303 102.573 165.337 85.702" fill="#2b2b2b"/><path d="M230.164,155.334l-15.747,3.783,20.246,31.39A302.885,302.885,0,0,0,230.164,155.334Z" fill="#2b2b2b"/><path d="M181.391,86.826l-19.735,2.863A21.148,21.148,0,0,1,137.628,71.8L135.89,59.935l-.921-6.749h0l-1.227-8.793a29.913,29.913,0,0,1,59.2-8.589l4.294,29.755a18.8,18.8,0,0,1-15.848,21.267Z" fill="#fdc068"/><path d="M138.753,57.583a3.046,3.046,0,0,1-2.761,2.25l-.92-6.749a2.99,2.99,0,0,1,1.636.1,3.544,3.544,0,0,1,2.045,4.4Z" fill="#2b2b2b"/><path d="M129.448,69.342A11.248,11.248,0,1,1,140.7,58.094,11.216,11.216,0,0,1,129.448,69.342Zm0-20.246a9,9,0,1,0,9,9A9.078,9.078,0,0,0,129.448,49.1Z" fill="#2b2b2b"/><path d="M144.99,65.661a.611.611,0,0,1-.409-.1l-3.17-1.329a3.348,3.348,0,0,1-1.125-4.7l3.477-5.624a1.123,1.123,0,0,1,1.943,1.125l-3.579,5.624a1.16,1.16,0,0,0,.409,1.635l2.863,1.227a1.09,1.09,0,0,1,.613,1.432A.984.984,0,0,1,144.99,65.661Z" fill="#2b2b2b"/><path d="M145.6,76.7c-1.84,0-3.578-1.023-5.112-3.068a1.094,1.094,0,1,1,1.738-1.329q1.688,2.146,3.374,2.147c2.352-.1,4.4-3.067,4.4-3.067a1.106,1.106,0,1,1,1.84,1.227c-.1.1-2.658,3.885-6.237,3.987C145.706,76.7,145.706,76.7,145.6,76.7Z" fill="#2b2b2b"/><circle cx="154.703" cy="53.902" r="3.374" fill="#2b2b2b"/><path d="M133.436,34.27c2.045,11.248,12.167,11.35,22.6.818a6.6,6.6,0,0,1,9.3-.1,6.177,6.177,0,0,1,1.739,3.067l1.636,6.442a7.59,7.59,0,0,0,5.214,5.317l6.34,1.738,5.214,13.395a12.081,12.081,0,0,0,13.4,7.464h0s-4.6-27.914-6.748-39.775-13.8-24.233-32.72-22.9C136.912,11.366,133.436,34.27,133.436,34.27Z" fill="#565656"/><path d="M154.7,65.661A11.861,11.861,0,1,1,166.564,53.8,11.74,11.74,0,0,1,154.7,65.661Zm0-21.37a9.612,9.612,0,1,0,9.612,9.611A9.6,9.6,0,0,0,154.7,44.291Z" fill="#2b2b2b"/><path d="M138.855,55.743a1.2,1.2,0,0,1-1.125-.921,1.01,1.01,0,0,1,.92-1.227l5.215-.818a1.085,1.085,0,0,1,.307,2.148l-5.215.818Z" fill="#2b2b2b"/><path d="M165.133,52.368a1.1,1.1,0,0,1-.307-2.147l11.963-4.192a1.132,1.132,0,1,1,.716,2.147l-11.963,4.192C165.337,52.266,165.235,52.368,165.133,52.368Z" fill="#2b2b2b"/><path d="M178.528,39.689h0a5.094,5.094,0,0,1,5.828,4.193l1.125,7.259a5.094,5.094,0,0,1-4.193,5.829h0a5.094,5.094,0,0,1-5.828-4.193l-1.125-7.259A5.074,5.074,0,0,1,178.528,39.689Z" fill="#fdc068"/><path d="M7.26,314.229H158.18a7.288,7.288,0,0,1,7.26,7.26v35.787a7.288,7.288,0,0,1-7.26,7.26H7.26A7.288,7.288,0,0,1,0,357.276V321.489A7.288,7.288,0,0,1,7.26,314.229Z" fill="#4c7de0"/><rect x="61.452" y="322.102" width="103.988" height="34.356" fill="#fff"/><path d="M15.951,251.346H170.143a5.673,5.673,0,0,1,5.624,5.624v19.12a5.673,5.673,0,0,1-5.624,5.624H15.951a5.673,5.673,0,0,1-5.624-5.624V256.97A5.673,5.673,0,0,1,15.951,251.346Z" fill="#dbb98b"/><rect x="103.272" y="258.606" width="71.881" height="15.133" fill="#fff"/><path d="M165.031,314.229H14.11a7.287,7.287,0,0,1-7.259-7.259V288.36a7.288,7.288,0,0,1,7.259-7.26H165.031a7.288,7.288,0,0,1,7.259,7.26v18.61A7.287,7.287,0,0,1,165.031,314.229Z" fill="#e64fe0"/><rect x="6.851" y="289.076" width="90.082" height="17.178" fill="#fff"/><path d="M27.812,218.217h150.92a7.288,7.288,0,0,1,7.26,7.26v18.609a7.288,7.288,0,0,1-7.26,7.26H27.812a7.288,7.288,0,0,1-7.26-7.26V225.477A7.223,7.223,0,0,1,27.812,218.217Z" fill="#e64fe0"/><rect x="95.808" y="226.192" width="90.082" height="17.178" fill="#fff"/><path d="M36.094,147.051h150.92a7.288,7.288,0,0,1,7.26,7.26V172.92a7.288,7.288,0,0,1-7.26,7.26H36.094a7.288,7.288,0,0,1-7.26-7.26V154.311A7.288,7.288,0,0,1,36.094,147.051Z" fill="#e64fe0"/><rect x="104.295" y="155.027" width="90.082" height="17.178" fill="#fff"/><path d="M27.812,180.18h150.92a7.288,7.288,0,0,1,7.26,7.26v24.847a7.288,7.288,0,0,1-7.26,7.259H27.812a7.288,7.288,0,0,1-7.26-7.259V187.44A7.159,7.159,0,0,1,27.812,180.18Z" fill="#f9d5ff"/><rect x="95.808" y="188.156" width="90.082" height="23.415" fill="#fff"/><path d="M172.8,356.049l-1.33,2.045a17.671,17.671,0,0,1-1.738,2.148L154.7,374.352a23.034,23.034,0,0,1-33.537-31.493L132,329.976l3.068-5.624Z" fill="#fdc068"/><polygon points="183.64 147.051 161.35 275.17 196.115 237.338 183.64 147.051" fill="#2b2b2b"/><path d="M135.072,324.25,181.8,237.338l3.169-100a29.617,29.617,0,0,1,59.2,1.942h0L240.8,246.233l-.1,1.227a24.479,24.479,0,0,1-4.192,12.986l-63.8,95.6Z" fill="url(#linear-gradient-6-i3)"/><path d="M181.8,238.462a1.9,1.9,0,0,1-.716-.2,1.029,1.029,0,0,1-.1-1.534l7.259-9.2a1.087,1.087,0,1,1,1.636,1.431l-7.259,9.2A1.962,1.962,0,0,1,181.8,238.462Z" fill="#2b2b2b"/><rect x="131.936" y="0.05" width="60.771" height="34.698" rx="1.5" fill="#2b2b2b"/><path d="M212.151,19.018,209.864,2.25h.038a1.135,1.135,0,0,0,1.124-1.125A1.134,1.134,0,0,0,209.9,0H114.5a1.135,1.135,0,0,0-1.125,1.125A1.135,1.135,0,0,0,114.5,2.25h93.172L210,19.325a1.2,1.2,0,0,0,1.125.92h.1A1.072,1.072,0,0,0,212.151,19.018Z" fill="#2b2b2b"/></g></g>
</g>
</g>

              </svg>