<svg width="1060" height="790" viewBox="0 0 1060 790" fill="none" xmlns="http://www.w3.org/2000/svg">
<g clip-path="url(#clip0)">
<path opacity="0.1" d="M1041.77 351.52C1041.58 352.64 1041.39 353.76 1041.18 354.88C1034.4 393.02 1023.33 429.79 1006.87 463.55C1006.33 464.67 1005.78 465.79 1005.22 466.91C994.657 488.197 981.685 508.201 966.56 526.53C958.36 536.42 949.42 545.81 938.79 552.59C923.89 562.09 906.47 565.95 889.35 569.11C871.56 572.4 853.54 575.11 835.56 578.11C829.187 579.15 822.853 580.24 816.56 581.38C799.19 584.52 781.95 588.15 765.12 592.96C744.31 598.96 724.12 606.69 705.12 617.64C703.6 618.507 702.097 619.397 700.61 620.31C699.12 621.21 697.61 622.13 696.16 623.07C694.71 624.01 693.25 624.94 691.81 625.89L689.59 627.39C688.86 627.87 688.14 628.39 687.42 628.87C685.28 630.33 683.17 631.87 681.06 633.35L680.98 633.41C679.59 634.41 678.21 635.41 676.83 636.41C669.04 642.18 661.42 648.22 653.83 654.28L649.04 658.11C646.567 660.07 644.093 662.027 641.62 663.98C640.17 665.13 638.7 666.27 637.24 667.41C636.18 668.24 635.13 669.07 634.05 669.89C628.64 674.06 623.16 678.14 617.57 682.04C616.24 682.97 614.89 683.9 613.57 684.81C602.38 692.464 590.478 699.021 578.03 704.39L577.87 704.46C571.738 707.073 565.429 709.249 558.99 710.97C555.3 711.97 551.61 712.76 547.87 713.38C537.907 715.103 527.737 715.279 517.72 713.9C498.03 711.11 479.58 701.9 459.94 698.82C419.42 692.53 380.07 712.82 341.94 728.75C332.607 732.657 323.17 736.323 313.63 739.75C307.31 742.03 300.96 744.2 294.58 746.26C255.711 758.832 215.66 767.399 175.05 771.83C158.47 773.64 141.18 774.5 124.3 773.2C117.926 772.731 111.582 771.907 105.3 770.73C83.93 766.73 63.98 758.24 47.91 742.73C34.56 730.04 25.14 713.45 17.96 696.14C15.0733 689.187 12.53 682.073 10.33 674.8C6.87201 663.401 4.27471 651.758 2.56 639.97C2.17 637.31 1.82 634.64 1.56 631.97C1.04 627.39 0.653331 622.79 0.399998 618.17C-1.00012 593.616 1.39811 568.993 7.51 545.17C14.32 518.78 25.68 493.51 30.68 466.87C30.89 465.75 31.08 464.63 31.27 463.51C31.9367 459.51 32.4433 455.437 32.79 451.29C35.31 418.71 25.56 386.82 17.86 354.88C17.59 353.76 17.32 352.64 17.06 351.52C16.2267 347.98 15.4367 344.437 14.69 340.89C7.56 307.11 5.61 270.96 11.94 237.25C12.14 236.13 12.37 235 12.6 233.89C16.87 213.01 24.41 193.15 35.96 175.46C47.81 157.3 63.37 142.19 79.96 128.91C88.06 122.443 96.4367 116.393 105.09 110.76C111.31 106.72 117.643 102.897 124.09 99.29C176.18 70.29 235.61 56.12 294.37 59.29C297.483 59.45 300.59 59.6633 303.69 59.93C306.943 60.21 310.187 60.5433 313.42 60.93C351.25 65.3 388.06 76.13 424.65 87.98C436.91 91.98 449.14 95.98 461.37 99.98C466.81 101.753 472.247 103.503 477.68 105.23C504.33 113.64 531.42 121.23 558.76 126.95C565.1 128.283 571.433 129.5 577.76 130.6C599.755 134.54 622.014 136.833 644.35 137.46C653.017 137.673 661.683 137.583 670.35 137.19C674.73 136.99 679.113 136.697 683.5 136.31C728.81 132.43 772.5 119.42 816.37 107.2C822.71 105.43 829.06 103.67 835.37 101.97C843.71 99.73 852.06 97.56 860.44 95.56C912.62 83.03 959.12 90.23 1007.63 116.07C1018.63 121.94 1029.63 129.02 1036.43 139.98C1043.23 150.94 1044.88 164.51 1046.14 177.57C1047.92 196.15 1049.14 214.99 1049.53 233.91C1049.53 235.03 1049.53 236.15 1049.6 237.27C1050.48 275.58 1048.15 314.18 1041.77 351.52Z" fill="#00B0FF"/>
<path opacity="0.1" d="M695.68 463.55H692.27V465.04V466.91H696.13L695.68 463.55ZM657.03 463.55C657.025 463.576 657.025 463.604 657.03 463.63L656.73 466.41V466.66V466.91H686.33V466.71L688.44 463.55H657.03ZM577.88 463.55V354.88H611.88C611.52 354.58 611.15 354.28 610.77 354L610.27 353.62C610.06 353.45 609.85 353.29 609.63 353.14C609.41 352.99 608.89 352.61 608.5 352.35C608.11 352.09 607.87 351.92 607.5 351.71L607.27 351.56H607.22H577.88V345.61L577.09 345.99L576.25 346.46H576.19L576.01 346.57L575.49 346.91C575.31 347.02 575.13 347.13 574.96 347.25C574.44 347.6 573.96 347.98 573.41 348.37L572.91 348.77C572.57 349.03 572.25 349.3 571.91 349.57C570.58 350.66 569.27 351.8 567.91 352.85C567.57 353.12 567.23 353.38 566.91 353.63C566.183 354.162 565.429 354.656 564.65 355.11C564.327 355.311 563.993 355.495 563.65 355.66L563.09 355.92L562.58 356.14C561.379 356.647 560.134 357.042 558.86 357.32V463.55H507.86C507.86 463.67 507.93 463.78 507.96 463.9C508.24 464.9 508.52 465.9 508.79 466.9H558.87V583.39H559.65L560.54 583.45L562.16 583.57L564.78 583.83L565.96 583.97L567.26 584.13H567.45C568.2 584.23 568.96 584.35 569.73 584.47L570.22 584.55L571.32 584.73L572.9 585.01L576.69 584.81L577.21 584.92C577.42 584.92 577.63 585 577.85 585.05V466.91H656.66V466.66V466.41L656.96 463.63C656.955 463.604 656.955 463.576 656.96 463.55H577.88ZM695.68 463.55H692.27V465.04V466.91H696.13L695.68 463.55ZM654.9 463.55L654.56 466.91H687.49L689.73 463.55H654.9ZM577.9 463.55V354.88H611.9C611.54 354.58 611.17 354.28 610.79 354L610.29 353.62C610.08 353.45 609.87 353.29 609.65 353.14C609.43 352.99 608.91 352.61 608.52 352.35C608.13 352.09 607.89 351.92 607.52 351.71L607.29 351.56H607.22H577.88V345.61L577.09 345.99L576.25 346.46H576.19L576.01 346.57L575.49 346.91C575.31 347.02 575.13 347.13 574.96 347.25C574.44 347.6 573.96 347.98 573.41 348.37L572.91 348.77C572.57 349.03 572.25 349.3 571.91 349.57C570.58 350.66 569.27 351.8 567.91 352.85C567.57 353.12 567.23 353.38 566.91 353.63C566.183 354.162 565.429 354.656 564.65 355.11C564.327 355.311 563.993 355.495 563.65 355.66L563.09 355.92L562.58 356.14C561.379 356.647 560.134 357.042 558.86 357.32V463.55H507.86C507.86 463.67 507.93 463.78 507.96 463.9C508.24 464.9 508.53 465.9 508.8 466.9H558.87V583.38L559.65 583.43L560.54 583.49L562.16 583.61L564.78 583.87L565.96 584.01L567.26 584.17H567.45C568.2 584.27 568.96 584.39 569.73 584.51L570.22 584.59L571.32 584.77L572.9 585.05L576.69 584.85L577.21 584.96C577.42 584.96 577.63 585.04 577.85 585.09V466.91H654.56L654.92 463.55H577.9ZM835.56 237.25H1049.79C1049.79 236.13 1049.79 235.01 1049.72 233.89H835.56V101.95C829.2 103.65 822.85 105.41 816.56 107.18V233.89H583.56L582.97 233.25L583.86 232.25L670.52 137.14C661.853 137.54 653.187 137.63 644.52 137.41L577.88 210.51V130.58C571.52 129.48 565.187 128.263 558.88 126.93V206.83L461.45 99.96C449.22 95.96 436.99 91.89 424.73 87.96L557.16 233.25L556.57 233.89H313.5V60.89C310.26 60.5233 307.017 60.19 303.77 59.89C300.67 59.6167 297.563 59.4033 294.45 59.25V233.89H124.17V99.29C117.71 102.89 111.377 106.713 105.17 110.76V233.89H12.56C12.33 235 12.1 236.13 11.9 237.25H105.09V351.52H17.06C17.32 352.64 17.59 353.76 17.86 354.88H105.13V463.55H31.24C31.05 464.67 30.86 465.79 30.65 466.91H105.13V770.76C111.412 771.937 117.756 772.762 124.13 773.23V466.91H294.45V746.29C300.837 744.217 307.187 742.047 313.5 739.78V466.91H558.84V711.01C565.279 709.289 571.588 707.114 577.72 704.5L577.88 704.43V466.91H816.5V581.38C822.827 580.24 829.16 579.15 835.5 578.11V466.91H1005.17C1005.73 465.79 1006.28 464.67 1006.82 463.55H835.56V354.88H1041.19C1041.4 353.76 1041.59 352.64 1041.78 351.52H835.56V237.25ZM124.18 237.25H294.45V351.52H124.17L124.18 237.25ZM124.18 463.55V354.88H294.45V463.55H124.18ZM313.51 237.25H558.84V351.52H313.5L313.51 237.25ZM313.51 463.55V354.88H558.84V463.55H313.51ZM816.51 463.55H577.88V354.88H816.5L816.51 463.55ZM816.51 351.55H577.88V240.31L581.23 237.25H816.5L816.51 351.55ZM657.04 463.55C657.035 463.576 657.035 463.604 657.04 463.63L656.74 466.41V466.66V466.91H686.34V466.71L688.45 463.55H657.04ZM695.69 463.55H692.28V465.04V466.91H696.14L695.69 463.55ZM577.89 463.55V354.88H611.89C611.53 354.58 611.16 354.28 610.78 354L610.28 353.62C610.07 353.45 609.86 353.29 609.64 353.14C609.42 352.99 608.9 352.61 608.51 352.35C608.12 352.09 607.88 351.92 607.51 351.71L607.28 351.56H607.23H577.88V345.61L577.09 345.99L576.25 346.46H576.19L576.01 346.57L575.49 346.91C575.31 347.02 575.13 347.13 574.96 347.25C574.44 347.6 573.96 347.98 573.41 348.37L572.91 348.77C572.57 349.03 572.25 349.3 571.91 349.57C570.58 350.66 569.27 351.8 567.91 352.85C567.57 353.12 567.23 353.38 566.91 353.63C566.183 354.162 565.429 354.656 564.65 355.11C564.327 355.311 563.993 355.495 563.65 355.66L563.09 355.92L562.58 356.14C561.379 356.647 560.134 357.042 558.86 357.32V463.55H507.86C507.86 463.67 507.93 463.78 507.96 463.9C508.24 464.9 508.52 465.9 508.79 466.9H558.87V583.39H559.65L560.54 583.45L562.16 583.57L564.78 583.83L565.96 583.97L567.26 584.13H567.45C568.2 584.23 568.96 584.35 569.73 584.47L570.22 584.55L571.32 584.73L572.9 585.01L576.69 584.81L577.21 584.92C577.42 584.92 577.63 585 577.85 585.05V466.91H656.66V466.66V466.41L656.96 463.63C656.955 463.604 656.955 463.576 656.96 463.55H577.89Z" fill="#00B0FF"/>
<path opacity="0.1" d="M206.04 158.57H207.56C207.04 158.269 206.602 157.844 206.287 157.333C205.971 156.821 205.786 156.24 205.75 155.64V155.64C205.75 153.32 208.59 151.43 212.06 151.43H256.21C259.68 151.43 262.52 153.32 262.52 155.64C262.52 157.95 259.68 159.85 256.21 159.85H254.74C255.258 160.153 255.693 160.579 256.007 161.09C256.321 161.601 256.504 162.181 256.54 162.78C256.54 164.78 254.48 166.42 251.72 166.87H264.43C267.89 166.87 270.73 168.76 270.73 171.08C270.73 173.4 267.89 175.28 264.43 175.28H220.23C216.77 175.28 213.93 173.39 213.93 171.08C213.93 169.08 215.99 167.44 218.75 166.99H206.04C202.58 166.99 199.74 165.1 199.74 162.78C199.74 160.46 202.56 158.57 206.04 158.57Z" fill="#00B0FF"/>
<path opacity="0.1" d="M684.56 198.64H686.04C685.519 198.337 685.081 197.911 684.765 197.398C684.45 196.885 684.266 196.301 684.23 195.7V195.7C684.23 193.39 687.07 191.5 690.54 191.5H734.69C738.16 191.5 741 193.39 741 195.7C741 198.02 738.16 199.91 734.69 199.91H733.22C733.738 200.215 734.174 200.642 734.488 201.155C734.802 201.668 734.985 202.25 735.02 202.85C735.02 204.85 732.96 206.48 730.2 206.93H742.91C746.37 206.93 749.21 208.83 749.21 211.14C749.21 213.45 746.37 215.35 742.91 215.35H698.77C695.31 215.35 692.47 213.46 692.47 211.14C692.47 209.14 694.53 207.5 697.29 207.06H684.56C681.1 207.06 678.26 205.16 678.26 202.85C678.26 200.54 681.12 198.64 684.56 198.64Z" fill="#00B0FF"/>
<path opacity="0.1" d="M138.31 370.11H139.79C139.272 369.805 138.836 369.378 138.522 368.865C138.208 368.352 138.025 367.77 137.99 367.17V367.17C137.99 364.86 140.82 362.96 144.29 362.96H188.44C191.91 362.96 194.75 364.86 194.75 367.17C194.75 369.49 191.91 371.38 188.44 371.38H186.97C187.488 371.684 187.924 372.112 188.238 372.625C188.552 373.138 188.735 373.72 188.77 374.32C188.77 376.32 186.71 377.95 183.95 378.4H196.66C200.13 378.4 202.96 380.29 202.96 382.61C202.96 384.93 200.13 386.82 196.66 386.82H152.5C149.04 386.82 146.2 384.92 146.2 382.61C146.2 380.61 148.27 378.97 151.02 378.52H138.31C134.85 378.52 132.01 376.63 132.01 374.32C132.01 372.01 134.85 370.11 138.31 370.11Z" fill="#00B0FF"/>
<path d="M648.92 658.15C646.447 660.11 643.973 662.067 641.5 664.02C640.05 665.17 638.58 666.31 637.12 667.45C636.06 668.28 635.01 669.11 633.93 669.93C628.52 674.1 623.04 678.18 617.45 682.08C616.12 683.01 614.77 683.94 613.45 684.85C602.26 692.504 590.358 699.061 577.91 704.43L577.75 704.5V658.15H648.92Z" fill="#65617D"/>
<path d="M760.2 475.99L761.32 441.44C760.65 440.92 759.97 440.44 759.32 439.96C759.596 429.659 759.008 419.353 757.56 409.15C753.04 374.6 723.69 373.85 715.41 380.98C714.313 381.927 713.116 382.752 711.84 383.44C712.59 378.51 713.52 373.57 714.19 368.69C717.81 342.37 712.19 312.76 691.77 295.75C683.22 288.64 672.77 284.27 663.38 278.32C646.56 267.71 633.27 252.04 616.26 241.71C599.25 231.38 575.36 227.51 560.52 240.79C554.77 245.93 551.06 253.06 545.16 258.02C534.16 267.26 517.01 267.87 507.41 278.19C506.93 278.71 506.47 279.24 506.03 279.8C498.03 290.06 500.22 304.61 502.77 317.34C505.84 332.66 504.57 344.94 517.71 349.34C517.76 349.95 517.8 350.56 517.87 351.16C518.939 360.558 522.049 369.609 526.982 377.679C531.916 385.749 538.553 392.644 546.43 397.88L544.3 398.64C538.62 400.64 533.51 402.58 530.24 403.91C518.24 408.8 492.98 415.17 492.98 415.17C492.98 415.17 492.38 422.37 492.49 432.99C484.07 442.14 470.02 458.22 465.89 467.75C459.89 481.65 425.99 521.46 416.96 527.47C407.93 533.48 398.14 540.61 398.14 540.61C398.14 540.61 383.84 548.5 377.07 549.25C372.38 549.77 357.87 546.99 357.87 546.99C357.87 546.99 299.92 475.99 303.68 530.47C307.44 584.95 353.73 586.8 353.73 586.8L400.4 586.05C400.4 586.05 425.62 589.43 436.91 580.05C446.55 572.05 496.51 528.16 512.56 508.25C512.93 508.66 513.3 509.06 513.69 509.45C513.69 509.45 520.08 501.19 520.84 509.45C521.6 517.71 516.69 521.45 519.33 524.45C521.97 527.45 529.87 537.97 530.24 542.1C530.61 546.23 519.71 563.1 538.14 575.9C538.43 576.1 538.74 576.29 539.08 576.48C542.37 583.97 552.83 591.3 552.83 591.3L609.28 590.55L715.79 598.81C715.79 598.81 718.96 596.02 723.25 591.46C728.98 596.72 736.93 601.23 745.89 598.46C745.89 598.46 758.69 583.07 759.07 572.93C759.07 572.93 750.79 551.52 747.07 545.14C743.35 538.76 749.71 524.86 749.71 524.86C749.71 524.86 754.22 511.34 756.86 511.34C759.5 511.34 757.61 502.34 757.61 502.34C756.612 500.869 755.987 499.177 755.791 497.41C755.594 495.643 755.83 493.855 756.48 492.2C758.69 486.51 760.2 475.99 760.2 475.99Z" fill="url(#paint0_linear)"/>
<path d="M696.35 468.21L692.35 472.89L676.19 491.71L655.08 492.99L621.29 495.07C621.29 495.07 575.73 440.17 584.29 428.22C587.4 423.91 587.91 418.22 587.29 412.85C587.21 412.11 587.1 411.37 586.97 410.64C585.946 404.958 584.156 399.441 581.65 394.24L582.77 393.73L583.49 393.4L623.33 375.22L633.19 370.72C633.681 373.438 634.592 376.062 635.89 378.5C636.08 378.88 636.29 379.26 636.51 379.62C650.1 402.12 693.68 387.89 693.68 387.89L696.35 468.21Z" fill="#FFB0B1"/>
<path d="M755.26 440.12C754.96 453.74 752.74 459.62 752.74 459.62L696.35 468.21L694.24 453.57L685.89 395.76L693.73 387.92C696.862 388.596 700.108 388.543 703.216 387.766C706.325 386.989 709.214 385.509 711.66 383.44C719.87 376.34 749 377.09 753.48 411.44C754.796 420.941 755.391 430.529 755.26 440.12V440.12Z" fill="#FFB0B1"/>
<path d="M741.91 599.65C741.91 599.65 754.6 584.34 754.98 574.26L742.28 552.97L731.08 540.97L710.16 581.35C710.16 581.35 723.98 605.25 741.91 599.65Z" fill="#DFE5EE"/>
<path opacity="0.1" d="M741.91 599.65C741.91 599.65 754.6 584.34 754.98 574.26L742.28 552.97L731.08 540.97L710.16 581.35C710.16 581.35 723.98 605.25 741.91 599.65Z" fill="black"/>
<path d="M637.12 667.45C636.06 668.28 635.01 669.11 633.93 669.93C628.52 674.1 623.04 678.18 617.45 682.08C616.12 683.01 614.77 683.94 613.45 684.85H558.84H313.5H294.45L200.07 681.47L124.17 680.83L105.17 679.83L10.37 674.83C6.89702 663.422 4.28633 651.769 2.56 639.97C2.17 637.31 1.82 634.64 1.56 631.97L105.13 637.71L124.13 638.78L294.41 648.28L313.46 649.34L558.8 663.04L577.68 664.1H577.84L637.12 667.45Z" fill="#D48A9B"/>
<path d="M765.06 592.96C744.25 598.96 724.06 606.69 705.06 617.64C703.55 618.51 702.06 619.4 700.55 620.31C699.04 621.22 697.55 622.13 696.1 623.07C694.65 624.01 693.19 624.94 691.75 625.89L689.53 627.39L687.36 628.87C685.22 630.34 683.11 631.87 681 633.35L680.92 633.41C679.53 634.41 678.15 635.41 676.77 636.41C668.98 642.18 661.36 648.22 653.77 654.28C652.17 655.56 650.567 656.837 648.96 658.11L641.56 663.98C640.11 665.13 638.64 666.27 637.18 667.41C636.12 668.24 635.07 669.07 633.99 669.89L577.99 667.22H577.83L558.95 666.34L313.5 654.71L294.45 653.8L124.17 645.71L105.17 644.8L2.56003 639.97C2.17003 637.31 1.82003 634.64 1.56003 631.97C1.04003 627.39 0.653358 622.79 0.400024 618.17L105.16 581.17L124.16 574.44L141.42 568.34L172.87 569.98L245.56 573.71L294.48 576.28L313.53 577.28L325.7 577.92L328.61 578.08L431.03 583.43L432.11 583.5L477.81 585.88H478.33H478.63L483.2 586.11L498.78 586.93L518.26 587.93L524.68 588.27L525.89 588.34L534.97 588.81L537.56 588.94L546.23 589.4L549.68 589.59H549.79H550.51L558.62 590.02L571.18 590.68H571.24L575.14 590.88H575.56L577.89 591.01L583.61 591.31L588.61 591.57H588.66L594.27 591.86H594.36L598.61 592.09L601.87 592.26L613.44 592.87L615.52 592.98H616.24L617.24 593.04L620.63 593.22L622.15 593.3L633.95 593.91H635.03L652.45 593.76H652.57L718.8 593.22H720.07H721.41H725.35L746.67 593.05H749.85L765.06 592.96Z" fill="#EFC6CD"/>
<path d="M318.07 594.33L324.23 627.1L491.71 624.58C491.71 624.58 504.31 628.22 504.03 618.14C504.03 618.14 529.52 594.05 658.63 622.06L609.06 583.13L473.56 590.41L316.44 586.21L318.07 594.33Z" fill="#00B0FF"/>
<path d="M321.15 586.49L327.03 622.06C327.03 622.06 471.03 617.86 493.67 621.78L476.56 589.29C476.56 589.29 389.49 581.17 321.15 586.49Z" fill="white"/>
<path opacity="0.1" d="M321.15 586.49L327.03 622.06C327.03 622.06 471.03 617.86 493.67 621.78L476.56 589.29C476.56 589.29 389.49 581.17 321.15 586.49Z" fill="black"/>
<path d="M323.3 586.36L329.1 619.44C329.1 619.44 471.27 615.54 493.67 619.18L476.8 588.97C476.8 588.97 390.78 581.41 323.3 586.36Z" fill="white"/>
<path opacity="0.1" d="M325.91 587.38L331.56 618.32C331.56 618.32 470.61 614.67 492.56 618.08L476.06 589.81C476.06 589.81 391.92 582.71 325.91 587.38Z" fill="black"/>
<path d="M327.03 586.25L332.71 617.25C332.71 617.25 471.76 613.6 493.71 617.01L477.17 588.71C477.17 588.71 393.04 581.62 327.03 586.25Z" fill="white"/>
<path d="M228.65 502.12C228.65 502.12 235.93 511.63 225.3 526C214.67 540.37 205.89 552.49 209.44 561.45C209.44 561.45 225.44 534.77 238.54 534.45C251.64 534.13 243.02 518.16 228.65 502.12Z" fill="#00B0FF"/>
<path opacity="0.1" d="M228.65 502.12C229.29 503.042 229.792 504.053 230.14 505.12C242.88 520.12 249.67 534.12 237.42 534.42C226.01 534.74 212.33 555.14 209.05 560.3C209.163 560.687 209.293 561.077 209.44 561.47C209.44 561.47 225.44 534.79 238.54 534.47C251.64 534.15 243.02 518.16 228.65 502.12Z" fill="black"/>
<path d="M242.18 514.25C242.18 517.59 241.8 520.31 241.34 520.31C240.88 520.31 240.5 517.59 240.5 514.25C240.5 510.91 240.97 512.47 241.43 512.47C241.89 512.47 242.18 510.9 242.18 514.25Z" fill="#FFD037"/>
<path d="M246.82 518.24C243.88 519.85 241.32 520.82 241.1 520.41C240.88 520 243.1 518.41 246.02 516.77C248.94 515.13 247.8 516.33 248.02 516.77C248.24 517.21 249.76 516.64 246.82 518.24Z" fill="#FFD037"/>
<path d="M190.22 502.12C190.22 502.12 182.94 511.63 193.58 526C204.22 540.37 212.98 552.49 209.44 561.45C209.44 561.45 193.39 534.77 180.33 534.45C167.27 534.13 175.85 518.16 190.22 502.12Z" fill="#00B0FF"/>
<path opacity="0.1" d="M190.22 502.12C189.586 503.045 189.084 504.055 188.73 505.12C175.99 520.12 169.2 534.12 181.45 534.42C192.86 534.74 206.55 555.14 209.83 560.3C209.723 560.687 209.593 561.077 209.44 561.47C209.44 561.47 193.39 534.79 180.33 534.47C167.27 534.15 175.85 518.16 190.22 502.12Z" fill="black"/>
<path d="M176.69 514.25C176.69 517.59 177.07 520.31 177.53 520.31C177.99 520.31 178.37 517.59 178.37 514.25C178.37 510.91 177.9 512.47 177.44 512.47C176.98 512.47 176.69 510.9 176.69 514.25Z" fill="#FFD037"/>
<path d="M172.05 518.24C174.99 519.85 177.56 520.82 177.78 520.41C178 520 175.78 518.41 172.86 516.77C169.94 515.13 171.08 516.33 170.86 516.77C170.64 517.21 169.11 516.64 172.05 518.24Z" fill="#FFD037"/>
<path d="M248.56 548.62L248.2 551.62L247.69 555.81L247.48 557.56L246.97 561.76L246.75 563.51L246.23 567.71L240.41 615.43C239.89 619.69 232.93 623.01 224.53 623.01H194.31C185.91 623.01 178.96 619.69 178.44 615.43L172.61 567.71L172.1 563.51L171.89 561.76L171.37 557.56L171.16 555.81L170.65 551.62L170.28 548.62C169.99 546.21 173.75 544.18 178.51 544.18H240.37C245.12 544.18 248.89 546.21 248.56 548.62Z" fill="#65617D"/>
<path d="M248.23 551.59L247.72 555.79H171.16L170.65 551.59H248.23Z" fill="#9D9CB5"/>
<path d="M247.51 557.54L247 561.74H171.89L171.37 557.54H247.51Z" fill="#9D9CB5"/>
<path d="M246.78 563.49L246.27 567.68H172.61L172.1 563.49H246.78Z" fill="#9D9CB5"/>
<path d="M340.85 544.76C340.85 544.76 321.43 526.09 322.18 550.36C322.93 574.63 340.85 544.76 340.85 544.76Z" fill="#EE8E9E"/>
<path d="M515.24 502.19C514.81 504.07 512.72 507.19 509.46 511.1C492.62 531.38 444.71 573.53 435.32 581.35C424.12 590.69 399.1 587.35 399.1 587.35L352.8 588.1C352.8 588.1 306.87 586.23 303.13 532.1C299.39 477.97 356.9 548.53 356.9 548.53C356.9 548.53 371.3 551.29 375.95 550.77C382.67 550.03 396.86 542.19 396.86 542.19C396.86 542.19 406.57 535.09 415.53 529.12C424.49 523.15 458.1 483.56 464.08 469.74C467.87 460.97 480.08 446.63 488.51 437.33C493.35 431.98 496.94 428.33 496.94 428.33C496.94 428.33 517.85 490.61 515.24 502.19Z" fill="#FFB0B1"/>
<path opacity="0.1" d="M515.24 502.19C514.81 504.07 512.72 507.19 509.46 511.1C492.46 493.79 488.91 459.25 488.51 437.29C493.35 431.94 496.94 428.29 496.94 428.29C496.94 428.29 517.85 490.61 515.24 502.19Z" fill="black"/>
<path opacity="0.1" d="M692.34 472.89L676.19 491.71L655.08 492.99L621.29 495.07C621.29 495.07 575.73 440.17 584.29 428.22C587.4 423.91 587.91 418.22 587.29 412.85C587.21 412.11 587.1 411.37 586.97 410.64C585.946 404.958 584.156 399.441 581.65 394.24L582.77 393.73L583.49 393.4C585.268 398.354 586.496 403.488 587.15 408.71C587.26 409.42 587.36 410.16 587.46 410.92C587.81 413.62 588.13 416.62 588.46 419.92C591.06 450.14 610.07 461.51 618.65 465.13C621.409 466.294 624.106 467.599 626.73 469.04C634.985 473.592 644.504 475.314 653.83 473.94C675.01 471.16 692.28 455.77 692.28 455.77L692.37 470.92L692.34 472.89Z" fill="black"/>
<path d="M692.99 590.32C692.99 590.32 554.08 589.94 535.77 577.25C517.46 564.56 528.31 547.75 527.93 543.64C527.55 539.53 519.72 529.08 517.11 526.08C514.5 523.08 519.35 519.36 518.6 511.15C517.85 502.94 511.51 511.15 511.51 511.15C485.36 484.63 490.96 417.42 490.96 417.42C490.96 417.42 515.96 411.08 527.96 406.21C531.21 404.89 536.27 403.01 541.96 400.98L544.07 400.22C558.74 394.97 576.18 389.04 576.18 389.04C576.18 389.04 579.53 386.67 582.9 393.76C584.44 397.02 585.99 402.27 587.23 410.66C587.34 411.37 587.44 412.11 587.54 412.87C587.89 415.57 588.21 418.57 588.54 421.87C591.14 452.09 610.15 463.46 618.73 467.08C621.489 468.243 624.186 469.549 626.81 470.99C635.065 475.542 644.584 477.263 653.91 475.89C675.09 473.11 692.36 457.72 692.36 457.72L692.45 472.87L692.71 518.39L692.99 590.32Z" fill="#DFE5EE"/>
<path d="M687.01 531.32L684.77 545.51C684.77 545.51 629.5 559.32 607.85 563.43C586.2 567.54 539.51 562.31 536.15 571.27C532.79 580.23 550.34 592.56 550.34 592.56L606.34 591.81L712.02 600.03C712.02 600.03 752.35 564.55 739.28 539.9C726.21 515.25 687.01 531.32 687.01 531.32Z" fill="#FFB0B1"/>
<path opacity="0.1" d="M573.12 419.29C573.12 419.29 547.72 440.2 552.58 450.29C557.44 460.38 573.12 419.29 573.12 419.29Z" fill="black"/>
<path opacity="0.1" d="M541.75 457C541.75 457 515.98 501.44 517.48 504.8C518.98 508.16 526.07 520.11 525.69 511.15C525.31 502.19 541.75 457 541.75 457Z" fill="black"/>
<path opacity="0.1" d="M552.21 464.85C552.21 464.85 546.21 492.48 540.26 504.06C534.31 515.64 552.21 464.85 552.21 464.85Z" fill="black"/>
<path opacity="0.1" d="M636.56 379.65C631.622 388.705 624.588 396.445 616.046 402.225C607.503 408.004 597.702 411.654 587.46 412.87H587.34C571.229 414.762 554.997 410.513 541.88 400.97C556.88 395.55 576.1 389.03 576.1 389.03C576.1 389.03 579.45 386.66 582.82 393.75L633.24 370.75C633.806 373.891 634.931 376.905 636.56 379.65V379.65Z" fill="black"/>
<path d="M644.44 346.47C644.459 357.716 641.528 368.77 635.94 378.53C633.271 383.184 630.036 387.49 626.31 391.35C615.914 402.174 602.062 409.022 587.15 410.71H587.02C584.636 410.983 582.239 411.12 579.84 411.12C563.967 411.12 548.65 405.277 536.811 394.705C524.971 384.133 517.439 369.572 515.65 353.8C515.372 351.38 515.235 348.946 515.24 346.51C515.24 329.377 522.046 312.946 534.161 300.831C546.276 288.716 562.707 281.91 579.84 281.91C596.973 281.91 613.404 288.716 625.519 300.831C637.634 312.946 644.44 329.377 644.44 346.51V346.47Z" fill="#FFB0B1"/>
<path opacity="0.1" d="M686.27 468.71L692.27 459.71C692.27 459.71 725.13 420.5 757.27 445.52L756.15 479.88C756.15 479.88 754.65 490.33 752.41 495.88C751.767 497.527 751.532 499.306 751.728 501.063C751.923 502.82 752.541 504.504 753.53 505.97C753.53 505.97 755.4 514.97 752.79 514.97C750.18 514.97 745.69 528.41 745.69 528.41C745.69 528.41 739.34 542.23 743.08 548.58C746.82 554.93 755.03 576.21 755.03 576.21C755.03 576.21 741.96 568.37 738.22 555.3C738.22 555.3 706.48 530.65 681.83 546.3L686.27 468.71Z" fill="black"/>
<path opacity="0.1" d="M755.26 440.12C754.96 453.74 752.74 459.62 752.74 459.62L696.35 468.21L694.24 453.57C701.62 445.87 728.46 421.39 755.26 440.12Z" fill="black"/>
<path d="M686.27 466.71L692.27 457.71C692.27 457.71 725.13 418.5 757.27 443.52L756.15 477.88C756.15 477.88 754.65 488.33 752.41 493.88C751.767 495.527 751.532 497.306 751.728 499.063C751.923 500.82 752.541 502.504 753.53 503.97C753.53 503.97 755.4 512.97 752.79 512.97C750.18 512.97 745.69 526.41 745.69 526.41C745.69 526.41 739.34 540.23 743.08 546.58C746.82 552.93 755.03 574.21 755.03 574.21C755.03 574.21 741.96 566.37 738.22 553.3C738.22 553.3 706.48 528.65 681.83 544.3L686.27 466.71Z" fill="#DFE5EE"/>
<path opacity="0.1" d="M739.29 441.32C739.29 441.32 685.15 474.56 687.76 503.71C687.76 503.71 718.01 450.28 739.29 441.32Z" fill="black"/>
<path opacity="0.1" d="M692.33 472.9L692.59 518.42C682.35 518.88 672.7 517.55 665.07 510.92C659.76 506.3 656.67 499.92 655.07 493.02C653.88 487.46 653.442 481.766 653.77 476.09C653.765 476.033 653.765 475.977 653.77 475.92C654.4 463.35 657.29 450.78 655.77 438.29C654.25 425.8 646.68 412.62 634.32 409.99C631.88 409.46 629.14 409.27 627.4 407.48C625.48 405.48 625.57 402.37 625.78 399.6L626.14 394.93C626.23 393.73 626.27 392.54 626.27 391.35C626.263 380.733 622.57 370.448 615.821 362.251C609.073 354.055 599.688 348.456 589.27 346.41L588.87 346.34C585.39 345.64 581.77 344.95 578.29 345.75C571.67 347.28 567.39 353.7 561.29 356.75C549.59 362.59 530.08 356.2 517.83 354.19C517.03 354.06 516.27 353.91 515.54 353.74C515.262 351.32 515.125 348.886 515.13 346.45C515.135 336.555 517.412 326.794 521.786 317.919C526.161 309.044 532.515 301.293 540.36 295.263C548.205 289.233 557.33 285.085 567.031 283.14C576.732 281.195 586.751 281.504 596.314 284.044C605.877 286.585 614.728 291.287 622.186 297.79C629.643 304.293 635.508 312.422 639.326 321.55C643.144 330.678 644.815 340.561 644.209 350.437C643.603 360.313 640.736 369.917 635.83 378.51C636.02 378.89 636.23 379.27 636.45 379.63C650.04 402.13 693.62 387.9 693.62 387.9L696.24 468.19L692.33 472.9Z" fill="black"/>
<path d="M563.64 355.64C569.7 352.58 573.98 346.16 580.64 344.64C584.11 343.84 587.73 344.53 591.23 345.22L591.63 345.3C602.645 347.479 612.477 353.623 619.265 362.568C626.053 371.512 629.325 382.635 628.46 393.83L628.1 398.5C627.88 401.26 627.79 404.39 629.73 406.37C631.46 408.16 634.2 408.37 636.64 408.87C649 411.51 656.57 424.62 658.09 437.18C659.61 449.74 656.67 462.35 656.09 474.97C655.51 487.59 657.83 501.52 667.37 509.81C682.37 522.81 705.17 515.41 725.02 514.22C716.24 514.22 709.66 505.16 709.18 496.4C708.7 487.64 712.6 479.3 716.33 471.4C720.06 463.5 723.8 455 722.97 446.26C721.83 434.26 712.37 424.65 708.75 413.1C704.53 399.66 708.6 385.23 710.51 371.26C714.1 345.1 708.51 315.65 688.26 298.74C679.78 291.67 669.41 287.32 660.09 281.4C643.39 270.81 630.22 255.28 613.34 244.98C596.46 234.68 572.76 230.86 558.03 244.06C552.33 249.17 548.65 256.26 542.79 261.19C531.34 270.84 513.14 271.02 503.96 282.86C496.06 293.05 498.2 307.52 500.73 320.17C504.1 337.04 502.2 350.17 520.23 353.17C532.43 355.1 551.93 361.49 563.64 355.64Z" fill="#603556"/>
<path opacity="0.1" d="M712.2 506.16C697.75 507.93 683.43 508.84 672.91 499.72C663.37 491.43 661.02 477.51 661.63 464.88C662.24 452.25 665.16 439.63 663.63 427.08C662.1 414.53 654.54 401.42 642.18 398.78C639.74 398.26 637.01 398.07 635.27 396.28C633.34 394.28 633.42 391.16 633.64 388.4L634 383.73C634.864 372.536 631.593 361.414 624.805 352.472C618.017 343.529 608.184 337.387 597.17 335.21L596.77 335.13C593.27 334.44 589.65 333.75 586.18 334.55C579.56 336.08 575.28 342.55 569.18 345.55C557.47 351.4 537.98 345.01 525.71 343C507.71 340.05 509.59 326.9 506.21 310C504.32 300.56 502.65 290.1 505.21 281.16C504.73 281.67 504.27 282.16 503.83 282.77C495.93 292.96 498.07 307.43 500.6 320.08C503.97 336.95 502.07 350.08 520.1 353.08C532.36 355.08 551.86 361.48 563.57 355.63C569.63 352.57 573.91 346.15 580.57 344.63C584.04 343.83 587.66 344.52 591.16 345.21L591.56 345.29C602.575 347.47 612.408 353.613 619.195 362.558C625.983 371.502 629.255 382.625 628.39 393.82L628.03 398.49C627.81 401.25 627.72 404.38 629.66 406.36C631.39 408.15 634.13 408.36 636.57 408.86C648.93 411.5 656.5 424.61 658.02 437.17C659.54 449.73 656.61 462.34 656.02 474.96C655.43 487.58 657.76 501.51 667.3 509.8C682.3 522.8 705.1 515.4 724.95 514.21C719.56 514.24 715.03 510.82 712.2 506.16Z" fill="black"/>
<path d="M306.36 539.52L368.01 516.52C369.467 515.976 371.081 516.033 372.497 516.678C373.913 517.323 375.014 518.503 375.56 519.96V519.96C376.104 521.417 376.047 523.031 375.402 524.447C374.757 525.863 373.577 526.964 372.12 527.51L310.47 550.51L297.25 549.19L306.36 539.52Z" fill="#5C5C8E"/>
<path opacity="0.1" d="M373.7 518.08C374.244 519.539 374.185 521.154 373.538 522.57C372.891 523.985 371.709 525.086 370.25 525.63L308.56 548.71L298.64 547.71L297.21 549.23L310.43 550.55L372.08 527.55C373.537 527.004 374.717 525.903 375.362 524.487C376.007 523.071 376.064 521.457 375.52 520V520C375.066 518.785 374.222 517.755 373.12 517.07C373.342 517.39 373.536 517.727 373.7 518.08V518.08Z" fill="white"/>
<path d="M306.37 539.52L310.47 550.51L299.63 549.42L297.26 549.18L300.5 545.74L306.37 539.52Z" fill="#EFC8C4"/>
<path d="M300.49 545.71C300.743 545.899 300.96 546.133 301.13 546.4C301.231 546.56 301.285 546.746 301.285 546.935C301.285 547.124 301.231 547.31 301.13 547.47C300.96 547.646 300.76 547.792 300.54 547.9C300.292 548.066 300.085 548.284 299.933 548.54C299.78 548.796 299.687 549.083 299.66 549.38L297.28 549.15L300.49 545.71Z" fill="#727A9C"/>
<path d="M499.93 609.71C499.93 609.71 553.33 598.5 642.93 612.71L607.83 586.95L543.97 573.88L498.79 585.88L499.93 609.71Z" fill="white"/>
<path opacity="0.1" d="M499.93 609.71C499.93 609.71 553.33 598.5 642.93 612.71L607.83 586.95L543.97 573.88L498.79 585.88L499.93 609.71Z" fill="black"/>
<path d="M493.67 621.83C493.67 621.83 520.56 549.09 658.67 622.06L609.1 590.16C609.1 590.16 490.35 557.35 476.63 595.16L493.67 621.83Z" fill="white"/>
<path opacity="0.1" d="M493.67 621.78C493.67 621.78 520.56 544.01 658.67 623.18L609.1 588.58C609.1 588.58 490.31 549.34 476.56 590.41L493.67 621.78Z" fill="black"/>
<path d="M493.67 621.81C493.67 621.81 520.56 542.89 658.67 622.06L609.1 587.46C609.1 587.46 490.35 549.34 476.63 590.46L493.67 621.81Z" fill="white"/>
<path opacity="0.1" d="M493.67 621.83C493.67 621.83 520.56 534.12 658.67 623.18L609.06 584.25C609.06 584.25 490.31 544.25 476.59 590.41L493.67 621.83Z" fill="black"/>
<path d="M493.67 621.78C493.67 621.78 520.56 533 658.67 622.06L609.06 583.13C609.06 583.13 490.31 543.13 476.59 589.29L493.67 621.78Z" fill="white"/>
<path opacity="0.1" d="M908.01 613.42C908.01 613.42 874.86 648.93 904.7 666.18C904.7 666.18 908.6 670.88 914.17 668.42C914.17 668.42 912.29 666.75 916.06 663.53C917.393 662.375 918.585 661.065 919.61 659.63C921 657.692 921.723 655.355 921.67 652.97V652.97C921.67 652.97 926.01 638.88 912.22 620.59C912.22 620.59 910.97 614.47 909.91 613.8L907.39 622.33C907.39 622.33 913.72 623.94 916.1 628.76C916.1 628.76 907.76 622.21 906.95 623.58C906.79 623.86 905.82 628.17 905.82 628.17C905.82 628.17 916.82 631.01 920.26 638.57C920.26 638.57 911.37 629.44 905.44 629.8L904.36 636.38C904.36 636.38 916.13 638.82 920.36 647.28C920.36 647.28 910.74 638.05 904.2 637.84L904.01 644.45C904.01 644.45 915.44 647.05 918.93 654.11C918.93 654.11 906.74 644.58 904.07 645.97C904.07 645.97 904.26 652.06 905.07 653.65C905.07 653.65 913.23 655.65 914.89 659.99C914.89 659.99 906.07 654.48 905.31 655.32C905.31 655.32 907.68 663.18 910.98 666.53C910.98 666.53 905.74 661.94 904.1 655.75C904.1 655.75 901.88 659.62 902.44 663.42C902.44 663.42 899.17 659.8 903.55 653.84C903.55 653.84 901.95 647.64 902.35 646.66C902.35 646.66 897.2 651.93 895.88 656.66C895.88 656.66 894.88 650.74 902.34 644.95V638.29C902.34 638.29 895.16 644.9 893.68 648.99C893.68 648.99 893.58 642.79 902.49 636.62L903.49 630.15C903.49 630.15 896.87 635.37 894.24 639.57C894.24 639.57 895.38 633.79 903.84 628.31L905.01 624.07C905.01 624.07 900.25 627.97 899.01 629.21C897.77 630.45 897.3 630.21 897.3 630.21C899.248 626.857 902.086 624.109 905.5 622.27C905.5 622.27 908.56 613.65 908.01 613.42Z" fill="#00B0FF"/>
<path opacity="0.1" d="M1056.2 35.62C1056.2 35.62 1011.91 55.62 1032.79 83.01C1032.79 83.01 1034.58 88.86 1040.66 88.74C1040.66 88.74 1039.57 86.47 1044.29 84.95C1045.97 84.4019 1047.57 83.6531 1049.07 82.72C1051.1 81.4685 1052.67 79.5908 1053.54 77.37V77.37C1053.54 77.37 1062.98 66.05 1057.31 43.86C1057.31 43.86 1058.52 37.73 1057.8 36.7L1052.18 43.6C1052.18 43.6 1057.4 47.52 1057.74 52.89C1057.74 52.89 1052.58 43.63 1051.3 44.59C1051.04 44.78 1048.49 48.38 1048.49 48.38C1048.49 48.38 1057.49 55.24 1057.8 63.55C1057.8 63.55 1053.12 51.69 1047.5 49.73L1043.97 55.39C1043.97 55.39 1053.89 62.18 1054.55 71.62C1054.55 71.62 1049.23 59.4 1043.28 56.68L1040.55 62.68C1040.55 62.68 1050.1 69.49 1050.55 77.35C1050.55 77.35 1042.98 63.85 1039.98 64.11C1039.98 64.11 1037.81 69.79 1037.98 71.58C1037.98 71.58 1044.72 76.58 1044.6 81.22C1044.6 81.22 1038.6 72.74 1037.6 73.22C1037.6 73.22 1036.75 81.38 1038.51 85.75C1038.51 85.75 1035.44 79.49 1036.32 73.15C1036.32 73.15 1032.77 75.87 1031.83 79.59C1031.83 79.59 1030.21 74.98 1036.55 71.17C1036.55 71.17 1037.46 64.84 1038.21 64.09C1038.21 64.09 1031.42 66.96 1028.4 70.78C1028.4 70.78 1029.75 64.93 1038.88 62.47L1041.48 56.35C1041.48 56.35 1032.31 59.67 1029.36 62.87C1029.36 62.87 1031.66 57.11 1042.26 54.87L1045.67 49.29C1045.67 49.29 1037.55 51.56 1033.5 54.41C1033.5 54.41 1036.79 49.53 1046.71 47.73L1049.42 44.27C1049.42 44.27 1043.52 46.03 1041.87 46.69C1040.22 47.35 1039.87 46.96 1039.87 46.96C1042.98 44.6081 1046.68 43.1677 1050.56 42.8C1050.56 42.8 1056.56 36.02 1056.2 35.62Z" fill="#00B0FF"/>
<path opacity="0.1" d="M635.83 48C635.83 48 569.29 67 601.64 95.28C601.64 95.28 604.51 101.28 613.72 101.28C613.72 101.28 612 98.96 619.12 97.55C621.571 97.057 623.974 96.3475 626.3 95.43C629.043 94.4687 631.377 92.6033 632.92 90.14C632.92 90.14 646.92 78.94 637.73 56.36C637.73 56.36 639.4 50.2 638.28 49.14L629.96 55.96C629.96 55.96 637.96 60.07 638.63 65.5C638.63 65.5 630.56 56.01 628.63 56.94C628.24 57.13 624.47 60.69 624.47 60.69C624.47 60.69 638.35 67.87 638.98 76.28C638.98 76.28 631.58 64.17 622.98 62.04L617.78 67.66C617.78 67.66 632.98 74.79 634.23 84.35C634.23 84.35 625.85 71.86 616.77 68.95L612.77 74.95C612.77 74.95 627.41 82.09 628.37 90.05C628.37 90.05 616.54 76.2 612 76.37C612 76.37 608.87 82.07 609.15 83.88C609.15 83.88 619.49 89.16 619.44 93.8C619.44 93.8 610.1 85.06 608.56 85.52C608.56 85.52 607.5 93.75 610.28 98.21C610.28 98.21 605.46 91.8 606.62 85.42C606.62 85.42 601.33 88.07 600 91.8C600 91.8 597.42 87.11 606.92 83.43C606.92 83.43 608.13 77.05 609.24 76.31C609.24 76.31 599.04 79.03 594.57 82.81C594.57 82.81 596.45 76.93 610.21 74.69L613.99 68.57C613.99 68.57 600.19 71.69 595.81 74.84C595.81 74.84 599.14 69.08 615.14 67.08L620.14 61.53C620.14 61.53 607.9 63.6 601.84 66.38C601.84 66.38 606.69 61.53 621.66 59.98L625.66 56.56C625.66 56.56 616.77 58.18 614.29 58.8C611.81 59.42 611.29 59.02 611.29 59.02C616.287 56.6002 621.74 55.2644 627.29 55.1C627.29 55.1 636.41 48.42 635.83 48Z" fill="#00B0FF"/>
<path opacity="0.1" d="M832.14 789.42C832.14 789.42 865.64 754.23 835.97 736.69C835.97 736.69 832.11 731.95 826.52 734.35C826.52 734.35 828.39 736.04 824.59 739.23C823.247 740.372 822.042 741.668 821 743.09C819.588 745.013 818.843 747.345 818.88 749.73V749.73C818.88 749.73 814.39 763.78 828.01 782.2C828.01 782.2 829.2 788.33 830.25 789.02L832.86 780.51C832.86 780.51 826.54 778.84 824.21 774C824.21 774 832.48 780.62 833.3 779.26C833.47 778.98 834.48 774.69 834.48 774.69C834.48 774.69 823.48 771.69 820.14 764.15C820.14 764.15 828.94 773.37 834.88 773.06L836.02 766.49C836.02 766.49 824.28 763.94 820.11 755.49C820.11 755.49 829.64 764.81 836.18 765.09L836.43 758.47C836.43 758.47 825.02 755.71 821.56 748.61C821.56 748.61 833.66 758.27 836.34 756.9C836.34 756.9 836.21 750.82 835.34 749.22C835.34 749.22 827.2 747.08 825.58 742.78C825.58 742.78 834.35 748.38 835.11 747.54C835.11 747.54 832.82 739.66 829.55 736.28C829.55 736.28 834.75 740.92 836.33 747.12C836.33 747.12 838.59 743.27 838.06 739.47C838.06 739.47 841.3 743.13 836.86 749.04C836.86 749.04 838.4 755.26 837.99 756.23C837.99 756.23 843.19 751.01 844.55 746.34C844.55 746.34 845.55 752.27 837.98 757.98L837.88 764.64C837.88 764.64 845.12 758.1 846.64 754.02C846.64 754.02 846.64 760.23 837.71 766.31L836.71 772.77C836.71 772.77 843.38 767.61 846.05 763.44C846.05 763.44 844.85 769.2 836.34 774.6L835.13 778.83C835.13 778.83 839.93 774.98 841.21 773.75C842.49 772.52 842.93 772.75 842.93 772.75C840.952 776.087 838.085 778.808 834.65 780.61C834.65 780.61 831.64 789.18 832.14 789.42Z" fill="#00B0FF"/>
<path opacity="0.1" d="M505.41 1.24004C505.41 1.24004 511.12 49.48 543.56 37.84C543.56 37.84 549.67 37.89 551.39 32.05C551.39 32.05 548.89 32.41 548.87 27.45C548.847 25.6856 548.615 23.9301 548.18 22.22C547.604 19.9065 546.287 17.8449 544.43 16.35V16.35C544.43 16.35 536.47 3.93004 513.56 2.71004C513.56 2.71004 508.08 -0.289961 506.88 0.0900385L511.77 7.52004C511.77 7.52004 517.08 3.72004 522.3 5.02004C522.3 5.02004 511.92 7.16004 512.45 8.66004C512.55 8.97004 515.21 12.48 515.21 12.48C515.21 12.48 524.56 5.88004 532.56 8.13004C532.56 8.13004 519.85 9.01004 516.29 13.78L520.56 18.86C520.56 18.86 530.02 11.44 539.23 13.65C539.23 13.65 525.97 15.05 521.58 19.9L526.56 24.32C526.56 24.32 535.92 17.26 543.56 19.16C543.56 19.16 528.4 22.32 527.74 25.25C527.74 25.25 532.51 29.03 534.27 29.43C534.27 29.43 541.11 24.52 545.45 26.02C545.45 26.02 535.55 29.2 535.7 30.32C535.7 30.32 543.23 33.58 547.92 33.22C547.92 33.22 541.03 34.22 535.25 31.52C535.25 31.52 536.77 35.71 540.04 37.74C540.04 37.74 535.16 37.89 533.43 30.74C533.43 30.74 527.67 27.96 527.18 27.03C527.18 27.03 527.88 34.36 530.61 38.39C530.61 38.39 525.43 35.39 525.83 25.9L520.83 21.57C520.83 21.57 521.24 31.32 523.4 35.1C523.4 35.1 518.6 31.17 519.64 20.38L515.35 15.45C515.35 15.45 515.06 23.87 516.56 28.59C516.56 28.59 512.89 23.99 514.17 13.99L511.68 10.36C511.68 10.36 511.59 16.51 511.68 18.29C511.77 20.07 511.34 20.24 511.34 20.24C510.026 16.576 509.756 12.6187 510.56 8.81004C510.56 8.81004 505.91 1.00004 505.41 1.24004Z" fill="#00B0FF"/>
<path opacity="0.1" d="M747.87 680.01C747.87 680.01 701.05 667.01 699.55 701.45C699.55 701.45 697.19 707.09 701.94 710.89C701.94 710.89 702.55 708.45 707.15 710.3C708.791 710.949 710.503 711.402 712.25 711.65C714.613 711.99 717.022 711.548 719.11 710.39V710.39C719.11 710.39 733.61 707.73 743.45 687.05C743.45 687.05 748.3 683.12 748.45 681.86L739.72 683.57C739.72 683.57 741.22 689.93 738.04 694.27C738.04 694.27 740.04 683.85 738.41 683.77C738.08 683.77 733.82 684.88 733.82 684.88C733.82 684.88 736.38 695.94 731.27 702.49C731.27 702.49 735.27 690.39 732.2 685.29L725.86 687.38C725.86 687.38 729.14 698.94 723.6 706.62C723.6 706.62 727.34 693.83 724.5 687.93L718.56 690.82C718.56 690.82 721.56 702.16 716.89 708.52C716.89 708.52 719.71 693.3 717.24 691.57C717.24 691.57 711.94 694.57 710.91 696.03C710.91 696.03 712.91 704.22 709.83 707.67C709.83 707.67 710.63 697.3 709.54 697.02C709.54 697.02 703.66 702.75 702.22 707.23C702.22 707.23 703.87 700.46 708.6 696.15C708.6 696.15 704.14 695.97 701.03 698.22C701.03 698.22 702.73 693.65 710.03 694.78C710.03 694.78 714.79 690.49 715.84 690.4C715.84 690.4 708.84 688.26 704.02 689.26C704.02 689.26 708.8 685.62 717.39 689.58L723.31 686.58C723.31 686.58 714.13 683.27 709.82 683.84C709.82 683.84 715.27 680.84 724.82 685.93L731 683.82C731 683.82 723.32 680.37 718.38 679.97C718.38 679.97 724.03 678.32 732.8 683.29L737.1 682.36C737.1 682.36 731.44 679.94 729.75 679.36C728.06 678.78 728.07 678.36 728.07 678.36C731.943 678.537 735.692 679.783 738.9 681.96C738.9 681.96 747.9 680.56 747.87 680.01Z" fill="#00B0FF"/>
</g>
<defs>
<linearGradient id="paint0_linear" x1="532.41" y1="599.28" x2="532.41" y2="232.27" gradientUnits="userSpaceOnUse">
<stop stop-color="#808080" stop-opacity="0.25"/>
<stop offset="0.54" stop-color="#808080" stop-opacity="0.12"/>
<stop offset="1" stop-color="#808080" stop-opacity="0.1"/>
</linearGradient>
<clipPath id="clip0">
<rect width="1059.13" height="789.41" fill="white"/>
</clipPath>
</defs>
</svg>
